<svg width="24" height="20" viewBox="0 0 24 20" fill="none" xmlns="http://www.w3.org/2000/svg">
<g clip-path="url(#clip0_2764_34799)">
<path d="M13.9879 4.96857H8.59809C5.24337 4.96857 2.52384 7.75469 2.52384 11.1915C2.52384 14.6283 5.24337 17.4144 8.59809 17.4144H9.28249H9.92416H12.5549C13.2283 17.4144 13.774 16.8552 13.774 16.1654C13.774 15.4757 13.2283 14.9165 12.5549 14.9165H9.96697H9.92416H9.0686C6.84905 14.9165 5.04768 13.2592 5.04768 11.2028C5.04768 9.1463 6.84905 7.462 9.0686 7.462L11.7983 7.47069C11.7983 7.4691 11.7984 7.46747 11.7984 7.46584H15.1849C15.1849 8.91855 13.9331 10.0961 12.3888 10.0961C12.3371 10.0961 12.2885 10.0946 12.2421 10.092V10.0959H8.66224C8.05988 10.0959 7.57152 10.5962 7.57152 11.2134C7.57152 11.8305 8.05988 12.3309 8.66224 12.3309H9.71031H9.92416H9.96697H12.5549C14.6221 12.3309 16.2978 14.0477 16.2978 16.1654C16.2978 18.2832 14.6221 20 12.5549 20H9.92416H8.59809C3.84952 20 0 16.0563 0 11.1915C0 6.32671 3.84952 2.38298 8.59809 2.38298H11.4214H13.9879H16.4689C16.4689 3.79626 15.362 4.944 13.9879 4.96751V4.96857ZM23.0842 3.6357H21.6129V5.27665C21.6129 5.41767 21.5014 5.53199 21.3638 5.53199H20.0352C19.8977 5.53199 19.7861 5.41767 19.7861 5.27665V3.6357H18.3512C18.2135 3.6357 18.102 3.52137 18.102 3.38035V2.14629C18.102 2.00527 18.2135 1.89107 18.3512 1.89107H19.7861V0.255343C19.7861 0.114325 19.8977 0 20.0352 0H21.3638C21.5014 0 21.6129 0.114325 21.6129 0.255343V1.89107H23.0842C23.2218 1.89107 23.3333 2.00527 23.3333 2.14629V3.38035C23.3333 3.52137 23.2218 3.6357 23.0842 3.6357Z" fill="#00D198"/>
</g>
<defs>
<clipPath id="clip0_2764_34799">
<rect width="24" height="20" fill="white"/>
</clipPath>
</defs>
</svg>
