<svg width="10" height="10" viewBox="0 0 10 10" fill="none" xmlns="http://www.w3.org/2000/svg">
<g clip-path="url(#clip0_7198_52274)">
<path d="M8.58528 6.73977C8.58528 8.10114 7.48301 9.20568 6.12164 9.20568H4.20346C2.6171 9.20568 1.33301 7.91932 1.33301 6.33523C1.33301 5.92159 1.42164 5.51477 1.5921 5.14205L2.79664 2.50795C2.58074 2.42841 2.36028 2.35795 2.13528 2.30114L1.90574 2.24205C1.72164 2.19432 1.6921 1.94432 1.86255 1.85568L4.06255 0.7125C4.22619 0.628409 4.42619 0.723864 4.46255 0.905682L4.9421 3.33295C4.97846 3.52159 4.76255 3.65568 4.61028 3.53977L4.47846 3.4375C4.28074 3.2875 4.07392 3.14659 3.86028 3.01932L2.66483 5.63068C2.56483 5.85341 2.51255 6.09205 2.51255 6.33523C2.51255 7.26705 3.26937 8.02386 4.20346 8.02386H6.12164C6.83073 8.02386 7.40573 7.44886 7.40573 6.73977C7.40573 6.03068 6.83073 5.45568 6.12164 5.45568H5.08073C4.75573 5.45568 4.48983 5.19205 4.48983 4.86705C4.48983 4.54205 4.75573 4.27614 5.08073 4.27614H6.22619C6.6671 4.27614 7.02392 3.91932 7.02392 3.47841C7.02392 3.0375 6.6671 2.68068 6.22619 2.68068H6.12164C5.79664 2.68068 5.53073 2.41477 5.53073 2.08977C5.53073 1.76477 5.79664 1.49886 6.12164 1.49886H6.22619C7.3171 1.49886 8.20346 2.38523 8.20346 3.47841C8.20346 3.99886 8.00119 4.47386 7.67164 4.82614C8.22846 5.27841 8.58528 5.96705 8.58528 6.73977Z" fill="#00D945"/>
</g>
<defs>
<clipPath id="clip0_7198_52274">
<rect width="7.25227" height="8.525" fill="white" transform="translate(1.33301 0.681641)"/>
</clipPath>
</defs>
</svg>
