<svg width="10" height="10" viewBox="0 0 10 10" fill="none" xmlns="http://www.w3.org/2000/svg">
<g clip-path="url(#clip0_7007_126422)">
<path d="M4.32472 1.50181C4.27087 1.45666 4.23977 1.42255 4.1896 1.38008C4.15917 1.35432 4.10666 1.3065 4.05883 1.2677C3.72606 0.997802 2.98425 0.435929 2.54244 0.585427C2.03542 0.756664 1.82505 2.26536 1.75415 2.73258C3.11602 1.92054 4.52137 1.73359 4.56485 1.72824H4.56586C4.50733 1.71051 4.3876 1.55466 4.32472 1.50181ZM7.9682 1.69446C7.88191 1.33626 7.66552 0.614524 7.2284 0.566363C6.6294 0.500477 5.7983 1.30984 5.38592 1.69446C6.93107 1.74763 8.12974 2.56703 8.12974 2.56703C8.06418 2.456 8.01402 1.88375 7.9682 1.69446Z" fill="url(#paint0_radial_7007_126422)"/>
<path d="M8.64596 3.05167C8.54428 2.93495 8.31987 2.71823 8.12957 2.56739C8.12957 2.56739 6.93091 1.74799 5.38576 1.69481C5.14729 1.66739 4.84161 1.6948 4.56569 1.72826H4.56469C4.52121 1.73394 3.11586 1.9209 1.75398 2.73294C0.533247 3.68478 0.0161904 5.43227 0.36803 6.92658C1.23659 10.6142 9.12321 9.97842 9.67472 6.41722C9.84529 5.31521 9.3677 3.88143 8.64596 3.05167ZM8.66636 6.9607C7.5493 8.98812 2.38776 9.42491 1.22255 7.30618C0.621207 6.21321 1.11719 4.79347 2.07639 4.08946C3.57238 2.99214 7.32121 2.77675 8.43893 4.52625C8.87104 5.2025 9.07037 6.22792 8.66636 6.9607Z" fill="#2DAFDF"/>
<path d="M8.64596 3.05167C8.54428 2.93495 8.31987 2.71823 8.12957 2.56739C8.12957 2.56739 6.93091 1.74799 5.38576 1.69481C5.14729 1.66739 4.84161 1.6948 4.56569 1.72826H4.56469C4.52121 1.73394 3.11586 1.9209 1.75398 2.73294C0.533247 3.68478 0.0161904 5.43227 0.36803 6.92658C1.23659 10.6142 9.12321 9.97842 9.67472 6.41722C9.84529 5.31521 9.3677 3.88143 8.64596 3.05167ZM8.66636 6.9607C7.5493 8.98812 2.38776 9.42491 1.22255 7.30618C0.621207 6.21321 1.11719 4.79347 2.07639 4.08946C3.57238 2.99214 7.32121 2.77675 8.43893 4.52625C8.87104 5.2025 9.07037 6.22792 8.66636 6.9607Z" fill="url(#paint1_linear_7007_126422)"/>
<path d="M8.43913 4.52586C7.3214 2.77636 3.57257 2.99174 2.07659 4.08907C1.11739 4.79308 0.621403 6.21281 1.22274 7.30579C2.38796 9.42452 7.5495 8.98773 8.66655 6.96031C9.07057 6.22753 8.87124 5.20211 8.43913 4.52586ZM3.55953 6.90612C2.72341 7.20512 2.11505 6.47034 2.3398 5.67201L1.87358 5.53689C1.91037 5.49041 1.95652 5.24091 1.99398 5.23489C2.08863 5.21917 2.47726 5.41248 2.55318 5.39743C2.59231 5.38974 2.64515 5.30579 2.69632 5.27602C3.0495 5.07168 3.51706 5.07034 3.83043 5.3486C4.32976 5.79141 4.20301 6.67602 3.55953 6.90612ZM5.85786 7.03656C5.77124 7.1302 5.55786 7.22853 5.43177 7.22686C5.31639 7.22519 5.13311 7.1379 5.0301 7.1486C4.94782 7.15696 4.85351 7.2573 4.72675 7.27268C4.3796 7.31482 4.09498 7.1379 4.07625 6.77335C4.15685 6.75161 4.27257 6.71649 4.35351 6.73689C4.37692 6.74291 4.43077 6.96265 4.62475 6.968C4.87625 6.97469 4.77525 6.71081 5.00067 6.68071C5.2913 6.64158 5.22742 6.9195 5.45719 6.90479C5.66053 6.89174 5.64649 6.67669 5.68294 6.64459C5.69297 6.63556 5.89699 6.59977 5.92575 6.60311C6.08997 6.62352 5.93612 6.95194 5.85786 7.03656ZM7.97558 5.06766C7.96087 5.08806 7.57558 5.22485 7.51104 5.27101C8.03846 6.14191 6.98662 7.11984 6.17993 6.5185C5.33946 5.89241 5.99699 4.55261 7.03746 4.89342C7.12007 4.92051 7.2515 5.02218 7.29364 5.02418C7.40067 5.0292 7.79665 4.71582 7.87558 4.77235C7.87826 4.84224 8.01405 5.01382 7.97558 5.06766Z" fill="#34393E"/>
<path d="M7.87505 4.77278C7.87773 4.84235 8.01351 5.01425 7.97539 5.06777C7.96067 5.0885 7.57539 5.22529 7.51084 5.27111C8.03826 6.14201 6.98642 7.11994 6.1794 6.5186C5.37238 5.91726 5.99646 4.55272 7.03726 4.89352C7.11987 4.92061 7.25097 5.02228 7.29345 5.02429C7.40047 5.0293 7.79646 4.71593 7.87505 4.77245V4.77278ZM6.36301 5.29017C5.61385 5.89218 6.70515 6.85338 7.20515 6.11593C7.56836 5.58014 7.01619 4.99118 6.44161 5.22027C6.37806 5.24569 6.38943 5.2691 6.36301 5.29017Z" fill="url(#paint2_linear_7007_126422)"/>
<path d="M7.87505 4.77278C7.87773 4.84235 8.01351 5.01425 7.97539 5.06777C7.96067 5.0885 7.57539 5.22529 7.51084 5.27111C8.03826 6.14201 6.98642 7.11994 6.1794 6.5186C5.37238 5.91726 5.99646 4.55272 7.03726 4.89352C7.11987 4.92061 7.25097 5.02228 7.29345 5.02429C7.40047 5.0293 7.79646 4.71593 7.87505 4.77245V4.77278ZM6.36301 5.29017C5.61385 5.89218 6.70515 6.85338 7.20515 6.11593C7.56836 5.58014 7.01619 4.99118 6.44161 5.22027C6.37806 5.24569 6.38943 5.2691 6.36301 5.29017Z" fill="url(#paint3_linear_7007_126422)"/>
<path d="M3.83039 5.349C4.32939 5.79181 4.20297 6.67642 3.55949 6.90652C2.72337 7.20552 2.11501 6.47074 2.33976 5.67208L1.87354 5.53696C1.91032 5.49047 1.95648 5.24097 1.99394 5.23495C2.08859 5.21957 2.47721 5.41288 2.55313 5.39783C2.59226 5.39014 2.64511 5.30619 2.69661 5.27642C3.04945 5.07208 3.51701 5.07107 3.83073 5.349H3.83039ZM3.66317 6.46004C3.87086 6.23562 3.85849 5.83529 3.64277 5.6199C3.26651 5.24465 2.58491 5.54198 2.60564 6.05535C2.62772 6.60786 3.3023 6.85 3.6635 6.46004H3.66317Z" fill="url(#paint4_linear_7007_126422)"/>
<path d="M3.83039 5.349C4.32939 5.79181 4.20297 6.67642 3.55949 6.90652C2.72337 7.20552 2.11501 6.47074 2.33976 5.67208L1.87354 5.53696C1.91032 5.49047 1.95648 5.24097 1.99394 5.23495C2.08859 5.21957 2.47721 5.41288 2.55313 5.39783C2.59226 5.39014 2.64511 5.30619 2.69661 5.27642C3.04945 5.07208 3.51701 5.07107 3.83073 5.349H3.83039ZM3.66317 6.46004C3.87086 6.23562 3.85849 5.83529 3.64277 5.6199C3.26651 5.24465 2.58491 5.54198 2.60564 6.05535C2.62772 6.60786 3.3023 6.85 3.6635 6.46004H3.66317Z" fill="url(#paint5_linear_7007_126422)"/>
<path d="M4.07617 6.77397C4.15644 6.75223 4.27249 6.71711 4.35309 6.73751C4.37651 6.74353 4.43035 6.9636 4.62467 6.96862C4.87617 6.97531 4.77517 6.71176 5.00059 6.68133C5.29122 6.6422 5.22701 6.92012 5.45711 6.90541C5.66045 6.89236 5.64641 6.67731 5.68286 6.64521C5.69289 6.63618 5.89724 6.60039 5.926 6.60374C6.09022 6.62414 5.93604 6.95257 5.85811 7.03718C5.77116 7.13116 5.55811 7.22915 5.43202 7.22748C5.31664 7.22581 5.13336 7.13852 5.03035 7.14922C4.94808 7.15792 4.85376 7.25792 4.72701 7.2733C4.37985 7.31544 4.09524 7.13852 4.07651 6.77397H4.07617Z" fill="url(#paint6_linear_7007_126422)"/>
<path d="M4.07617 6.77397C4.15644 6.75223 4.27249 6.71711 4.35309 6.73751C4.37651 6.74353 4.43035 6.9636 4.62467 6.96862C4.87617 6.97531 4.77517 6.71176 5.00059 6.68133C5.29122 6.6422 5.22701 6.92012 5.45711 6.90541C5.66045 6.89236 5.64641 6.67731 5.68286 6.64521C5.69289 6.63618 5.89724 6.60039 5.926 6.60374C6.09022 6.62414 5.93604 6.95257 5.85811 7.03718C5.77116 7.13116 5.55811 7.22915 5.43202 7.22748C5.31664 7.22581 5.13336 7.13852 5.03035 7.14922C4.94808 7.15792 4.85376 7.25792 4.72701 7.2733C4.37985 7.31544 4.09524 7.13852 4.07651 6.77397H4.07617Z" fill="url(#paint7_linear_7007_126422)"/>
<path d="M6.36316 5.29054C6.38958 5.26913 6.37821 5.24606 6.44175 5.22064C7.01633 4.99188 7.56884 5.58051 7.2053 6.11629C6.7053 6.85375 5.61399 5.89255 6.36316 5.29054Z" fill="#34393E"/>
<path d="M3.66306 6.45999C3.30219 6.84996 2.62761 6.60782 2.6052 6.05531C2.58446 5.54193 3.2664 5.24461 3.64232 5.61986C3.85838 5.83524 3.87075 6.23558 3.66272 6.45999H3.66306Z" fill="#34393E"/>
</g>
<defs>
<radialGradient id="paint0_radial_7007_126422" cx="0" cy="0" r="1" gradientUnits="userSpaceOnUse" gradientTransform="translate(5.24312 3.3366) rotate(-95.8067) scale(2.97513 8.73291)">
<stop offset="0.484419" stop-color="#11A1D6"/>
<stop offset="0.925954" stop-color="#32C5F5"/>
</radialGradient>
<linearGradient id="paint1_linear_7007_126422" x1="5.52723" y1="9.39047" x2="3.44504" y2="2.13308" gradientUnits="userSpaceOnUse">
<stop stop-color="#0291C9"/>
<stop offset="1" stop-color="#36C9F8"/>
</linearGradient>
<linearGradient id="paint2_linear_7007_126422" x1="6.72957" y1="6.75606" x2="6.97137" y2="4.68415" gradientUnits="userSpaceOnUse">
<stop stop-color="#91D4D7"/>
<stop offset="1" stop-color="#8F9CCE"/>
</linearGradient>
<linearGradient id="paint3_linear_7007_126422" x1="6.72957" y1="6.75606" x2="6.97137" y2="4.68415" gradientUnits="userSpaceOnUse">
<stop stop-color="#77FDEF"/>
<stop offset="1" stop-color="#8C9FF7"/>
</linearGradient>
<linearGradient id="paint4_linear_7007_126422" x1="1.87354" y1="6.05268" x2="4.13641" y2="6.05268" gradientUnits="userSpaceOnUse">
<stop stop-color="#91D4D7"/>
<stop offset="1" stop-color="#8F9CCE"/>
</linearGradient>
<linearGradient id="paint5_linear_7007_126422" x1="2.83083" y1="7.02397" x2="3.04118" y2="5.04893" gradientUnits="userSpaceOnUse">
<stop stop-color="#77FDEF"/>
<stop offset="1" stop-color="#8C9FF7"/>
</linearGradient>
<linearGradient id="paint6_linear_7007_126422" x1="4.07617" y1="6.94153" x2="5.99858" y2="6.94153" gradientUnits="userSpaceOnUse">
<stop stop-color="#91D4D7"/>
<stop offset="1" stop-color="#8F9CCE"/>
</linearGradient>
<linearGradient id="paint7_linear_7007_126422" x1="4.88957" y1="7.29748" x2="4.92315" y2="6.56681" gradientUnits="userSpaceOnUse">
<stop stop-color="#77FDEF"/>
<stop offset="1" stop-color="#8C9FF7"/>
</linearGradient>
<clipPath id="clip0_7007_126422">
<rect width="9.4495" height="8.84615" fill="white" transform="translate(0.259766 0.560547)"/>
</clipPath>
</defs>
</svg>
