<svg width="10" height="10" viewBox="0 0 10 10" fill="none" xmlns="http://www.w3.org/2000/svg">
<g clip-path="url(#clip0_9376_89318)">
<path d="M9.79629 5.43782C9.79165 5.44862 9.77892 5.44791 9.77064 5.45509C9.75742 5.4668 9.75146 5.4881 9.74076 5.50081C9.54757 5.73004 8.96232 5.76265 8.67897 5.78052C8.25088 5.80746 7.81967 5.81584 7.3925 5.80565C7.16316 5.80019 6.93473 5.79182 6.70641 5.77537C6.69672 5.77466 6.68602 5.78092 6.68885 5.76527C6.92656 5.77819 7.16488 5.78172 7.40249 5.79071C7.75528 5.79061 8.10776 5.7904 8.45944 5.76527L8.2616 5.69845C6.72469 5.27329 5.10531 4.98702 3.50833 4.89869C2.94348 4.8674 2.34853 4.84681 1.78317 4.88366C1.66799 4.89123 1.55302 4.90859 1.43755 4.91394C1.43604 4.91505 1.44018 4.91989 1.44259 4.92151C1.4656 4.93645 1.58996 4.97006 1.6254 4.98067C2.05116 5.10825 2.49862 5.20738 2.93479 5.2952C3.86091 5.48173 4.80479 5.60902 5.74556 5.69482C5.74849 5.70936 5.73769 5.70562 5.7281 5.70481C4.13547 5.56713 2.55728 5.28712 1.00976 4.88983C0.930531 4.89406 0.853308 4.86712 0.774172 4.85844C0.676163 4.84773 0.557759 4.83926 0.462064 4.84502C0.449449 4.84572 0.433802 4.85753 0.420481 4.85834C0.383744 4.86055 0.392925 4.85683 0.354167 4.86712C0.29936 4.88175 0.171264 4.91436 0.13896 4.95957C0.104342 5.00803 0.0922263 5.09342 0.105852 5.15065C-0.0175939 4.98561 -0.0323387 4.75012 0.0578036 4.5661C0.186498 4.30296 0.4979 4.19545 0.765588 4.13439C1.23184 4.0281 1.71362 4.00993 2.18914 4.00195C2.19197 4.0172 2.18147 4.01174 2.17178 4.01205C1.86513 4.02224 1.5397 4.0496 1.2399 4.11429C1.10818 4.14276 0.769218 4.2219 0.715921 4.35685C0.674436 4.46213 0.82221 4.62585 0.900443 4.68703C0.943852 4.72094 1.16794 4.83036 1.21841 4.83793C1.26636 4.8452 1.37012 4.82551 1.42473 4.82299C2.71474 4.76202 4.01313 4.8453 5.29335 5.03042C6.29801 5.17577 7.30983 5.36423 8.28804 5.63172C8.40756 5.66443 8.52657 5.70702 8.64597 5.7377C8.70391 5.75264 8.79405 5.73801 8.85471 5.72933C8.8754 5.7264 8.94223 5.71944 8.95414 5.70763C8.97967 5.64151 8.99219 5.57136 9.01934 5.50575C9.05638 5.41622 9.12502 5.33688 9.15995 5.24816C9.17328 5.21425 9.18529 5.177 9.1649 5.14399C9.12139 5.07373 8.91103 5.00873 8.8314 4.9729C8.82393 4.96946 8.81494 4.97219 8.81767 4.95917C9.12776 5.06355 9.562 5.20727 9.79629 5.43782Z" fill="#D2D2D3"/>
<path d="M9.79647 5.43843C9.79183 5.44923 9.77911 5.44852 9.77083 5.45569C9.7576 5.46741 9.75165 5.4887 9.74095 5.50142C9.54775 5.73065 8.9625 5.76326 8.67915 5.78112C8.25106 5.80807 7.81986 5.81645 7.39268 5.80625C7.16335 5.8008 6.93492 5.79242 6.70659 5.77597C6.6969 5.77527 6.6862 5.78152 6.68904 5.76588C6.68399 5.76567 6.67894 5.76618 6.6739 5.76588C6.66209 5.77334 6.62303 5.77769 6.62848 5.76093C6.61848 5.76032 6.60829 5.76143 6.5983 5.76093C6.59053 5.7681 6.58023 5.76628 6.57053 5.76628C6.51472 5.76618 6.4381 5.76891 6.385 5.75952C6.37653 5.75811 6.36875 5.75679 6.37128 5.7458C6.36794 5.74549 6.36452 5.746 6.36118 5.7458C6.34887 5.76377 6.33271 5.75114 6.31819 5.75084C6.18949 5.74781 6.0622 5.73136 5.93482 5.72065C5.88334 5.71632 5.83146 5.71903 5.77928 5.70965C5.7709 5.70823 5.75253 5.70924 5.75586 5.69541C5.75253 5.69511 5.7491 5.69572 5.74577 5.69541C5.74869 5.70995 5.73789 5.70621 5.72831 5.70541C4.13568 5.56773 2.55748 5.28772 1.00997 4.89042C0.930736 4.89466 0.853513 4.86771 0.774377 4.85903C0.676368 4.84833 0.557964 4.83985 0.462269 4.84561C0.449654 4.84632 0.434007 4.85813 0.420686 4.85893C0.383949 4.86115 0.39313 4.85742 0.354372 4.86771C0.299565 4.88235 0.171469 4.91496 0.139165 4.96017C0.104547 5.00862 0.0924313 5.09401 0.106057 5.15124C0.113022 5.18072 0.190245 5.26894 0.214269 5.29256C0.56645 5.63798 1.36791 5.86187 1.84536 5.98613C2.98093 6.28178 4.17132 6.45601 5.3397 6.57208C6.34608 6.67202 7.34367 6.73783 8.3565 6.68312C8.76419 6.66102 9.40041 6.62549 9.73251 6.37465C10.0574 6.12916 10.0881 5.7255 9.79647 5.43843ZM8.91173 6.57764C8.03153 6.71411 7.08481 6.68251 6.19714 6.62246C4.83748 6.5305 3.4546 6.35214 2.13279 6.0265C1.73993 5.9297 1.33789 5.81534 0.963703 5.66251C0.761621 5.57994 0.446384 5.43307 0.295176 5.27722C0.24804 5.22847 0.227341 5.17658 0.288917 5.12995C0.374615 5.06514 0.519771 5.06343 0.624539 5.05707C0.649475 5.05556 0.674 5.05526 0.698936 5.05535C1.28186 5.05738 1.86076 5.18385 2.4354 5.28085C3.35708 5.4365 4.27241 5.58418 5.20348 5.68027C6.32603 5.79615 7.44849 5.8665 8.57801 5.81613C8.9533 5.79938 9.32788 5.78222 9.68531 5.65746C9.73033 5.64181 9.79261 5.5971 9.83904 5.63525C9.88598 5.67381 9.93716 5.79907 9.93787 5.85933C9.94332 6.34738 9.29176 6.51879 8.91173 6.57764Z" fill="#D9DBDC"/>
<path d="M9.16494 5.14341C9.12143 5.07316 8.91107 5.00816 8.83143 4.97232C8.82397 4.96889 8.81498 4.97162 8.81771 4.9586C8.8062 4.95476 8.79378 4.95234 8.78238 4.9486C8.7736 4.95719 8.77078 4.95547 8.77229 4.94356C8.74363 4.93407 8.71476 4.92731 8.68649 4.91833C8.67812 4.92722 8.67478 4.92499 8.6764 4.91329C7.9902 4.69678 7.26748 4.53981 6.55878 4.41091C5.13228 4.15158 3.70287 3.98291 2.24974 4.00138C2.25438 4.01763 2.22409 4.01632 2.22955 4.00138C2.21612 4.00159 2.2026 4.00117 2.18917 4.00138C2.192 4.01662 2.1815 4.01117 2.17181 4.01147C1.86515 4.02167 1.53972 4.04903 1.23993 4.11372C1.1082 4.14219 0.769243 4.22132 0.715946 4.35628C0.674461 4.46156 0.822235 4.62528 0.900469 4.68645C0.943877 4.72037 1.16796 4.82979 1.21843 4.83736C1.26638 4.84463 1.37014 4.82494 1.42475 4.82242C2.71477 4.76145 4.01315 4.84473 5.29338 5.02985C6.29804 5.1752 7.30986 5.36365 8.28807 5.63115C8.40758 5.66385 8.52659 5.70645 8.646 5.73713C8.70393 5.75207 8.79408 5.73743 8.85474 5.72875C8.87543 5.72583 8.94225 5.71887 8.95416 5.70705C8.9797 5.64094 8.99221 5.57079 9.01937 5.50518C9.05641 5.41565 9.12505 5.3363 9.15998 5.24758C9.1733 5.21367 9.18533 5.17642 9.16494 5.14341ZM8.76581 5.59956C8.66922 5.63963 8.59795 5.61894 8.49883 5.60208C8.24618 5.55888 7.9905 5.48842 7.73835 5.43452C6.73733 5.22093 5.72611 5.04358 4.70894 4.91831C3.8677 4.81464 3.02415 4.76437 2.17666 4.74157C1.92704 4.73481 1.66883 4.7458 1.42053 4.72128C1.25085 4.70452 1.13638 4.65446 1.00132 4.55039C0.980528 4.53434 0.963175 4.50568 0.951962 4.49649C0.942976 4.48912 0.910672 4.48437 0.893113 4.47216C0.87827 4.46186 0.864145 4.44218 0.84991 4.42957C0.824778 4.40736 0.799243 4.41342 0.821344 4.36577C0.878477 4.24243 1.1712 4.17308 1.29627 4.14492C1.63058 4.06962 1.98044 4.0459 2.32312 4.03681C3.78826 3.99835 5.2528 4.19195 6.68766 4.46359C7.26685 4.57331 7.89116 4.69676 8.44825 4.88673C8.56473 4.9265 8.83829 5.01968 8.90258 5.12324C8.91863 5.14917 8.90975 5.16159 8.9147 5.18673C8.91742 5.20045 8.92701 5.21508 8.92832 5.22872C8.9375 5.32259 8.85827 5.5612 8.76581 5.59956Z" fill="#D9DBDC"/>
<path d="M2.22942 4.00198C2.23618 4.00188 2.24295 4.00208 2.24961 4.00198C2.25425 4.01824 2.22397 4.01692 2.22942 4.00198Z" fill="#D2D2D3"/>
<path d="M8.68652 4.9191C8.67814 4.92799 8.6748 4.92576 8.67642 4.91406C8.68167 4.91578 8.68531 4.9187 8.68652 4.9191Z" fill="#D2D2D3"/>
<path d="M8.78245 4.95035C8.77367 4.95894 8.77085 4.95722 8.77236 4.94531C8.77751 4.94693 8.78104 4.94985 8.78245 4.95035Z" fill="#D2D2D3"/>
<path d="M9.83887 5.6346C9.79244 5.59644 9.73015 5.64116 9.68514 5.65681C9.32771 5.78157 8.95312 5.79873 8.57783 5.81548C7.44831 5.86586 6.32586 5.7955 5.2033 5.67962C4.27224 5.58352 3.35691 5.43584 2.43523 5.2802C1.86058 5.1832 1.28169 5.05673 0.698759 5.0547C0.673823 5.05461 0.649299 5.05491 0.624362 5.05642C0.519583 5.06278 0.374438 5.06449 0.28874 5.1293C0.227164 5.17593 0.247863 5.22782 0.294999 5.27657C0.446207 5.43242 0.761444 5.57929 0.963525 5.66186C1.33771 5.81469 1.73975 5.92905 2.13262 6.02585C3.45443 6.35149 4.8373 6.52985 6.19697 6.62181C7.08463 6.68186 8.03135 6.71346 8.91155 6.57699C9.29159 6.51814 9.94316 6.34674 9.9377 5.85869C9.93699 5.79843 9.88581 5.67316 9.83887 5.6346ZM9.65758 6.09792C9.64234 6.1181 9.649 6.14596 9.62902 6.17009C9.62427 6.17574 9.56553 6.22682 9.55896 6.23105C9.54584 6.23943 9.52939 6.23983 9.51899 6.2466C9.50899 6.25317 9.50526 6.2682 9.49345 6.27648C9.46822 6.29394 9.33679 6.36309 9.30964 6.37006C9.27865 6.37813 9.25604 6.37491 9.22505 6.39136C9.20991 6.39933 9.19215 6.41962 9.18114 6.42305C9.16549 6.4279 9.14753 6.42386 9.13006 6.4275C9.10926 6.43183 9.09463 6.45001 9.07626 6.45434C9.06556 6.45687 9.05405 6.45425 9.04325 6.45667C8.71994 6.53096 8.39129 6.58133 8.05838 6.60202C7.17233 6.65734 6.27942 6.60727 5.39488 6.52107C4.55425 6.43911 3.70787 6.32555 2.87915 6.15183C2.51617 6.07573 2.154 5.98457 1.7994 5.88495C1.59731 5.82822 1.40684 5.74727 1.2096 5.67802C1.19103 5.67155 1.16862 5.67368 1.14863 5.66338C1.13491 5.65621 1.12068 5.63633 1.10482 5.63148C1.06162 5.61846 1.03285 5.60978 0.990157 5.5899C0.956647 5.57435 0.936655 5.57163 0.909099 5.55992C0.895267 5.55406 0.85954 5.52318 0.840666 5.51248C0.808167 5.49391 0.764856 5.47664 0.732867 5.45898C0.690273 5.43545 0.656959 5.40871 0.615267 5.38993C0.593057 5.37994 0.537446 5.33714 0.514226 5.31958C0.498786 5.30777 0.464265 5.27426 0.48717 5.25689C0.557928 5.2035 0.680168 5.22682 0.76415 5.20612C1.61467 5.19753 2.45651 5.35843 3.29713 5.47745C4.5504 5.6548 5.81447 5.7953 7.07996 5.84568C7.65613 5.86859 8.22261 5.86041 8.79563 5.84123C8.93887 5.83639 9.0925 5.849 9.23391 5.84103C9.25481 5.83982 9.27964 5.83013 9.29912 5.83063C9.32051 5.83113 9.34303 5.84607 9.36493 5.84628C9.38119 5.84637 9.40279 5.83547 9.4156 5.83639C9.44205 5.8382 9.50584 5.86314 9.53704 5.86587C9.54996 5.86707 9.56146 5.86041 9.57075 5.86182C9.57934 5.86314 9.58549 5.87312 9.59316 5.87484C9.61072 5.87898 9.6515 5.87686 9.6623 5.8915C9.66705 5.89785 9.66674 5.90835 9.67289 5.91623C9.67814 5.92289 9.71033 5.93773 9.70035 5.95166C9.69762 5.9554 9.67158 5.94934 9.67522 5.98397C9.67855 6.01536 9.7063 6.01959 9.71327 6.03221C9.72468 6.05301 9.66848 6.08357 9.65758 6.09792Z" fill="#DFE0E0"/>
<path d="M6.36109 5.7457C6.34878 5.76367 6.33262 5.75104 6.3181 5.75074C6.1894 5.74771 6.06211 5.73126 5.93473 5.72055C5.88325 5.71622 5.83136 5.71893 5.77919 5.70955C5.77081 5.70813 5.75244 5.70914 5.75577 5.69531C5.95654 5.71358 6.16132 5.73166 6.36109 5.7457Z" fill="#D2D2D3"/>
<path d="M6.59811 5.76123C6.59034 5.7684 6.58004 5.76658 6.57035 5.76658C6.51453 5.76648 6.43792 5.76921 6.38481 5.75982C6.37634 5.7584 6.36856 5.75709 6.37109 5.74609C6.39037 5.74741 6.42338 5.75114 6.43912 5.75114H6.51482C6.53633 5.75114 6.57672 5.75991 6.59811 5.76123Z" fill="#D2D2D3"/>
<path d="M6.67362 5.76666C6.66181 5.77413 6.62275 5.77847 6.6282 5.76172C6.64416 5.76252 6.66273 5.76607 6.67362 5.76666Z" fill="#D2D2D3"/>
<path d="M8.9284 5.22997C8.92708 5.21635 8.9175 5.20171 8.91477 5.18798C8.90983 5.16285 8.9187 5.15043 8.90266 5.12449C8.83835 5.02093 8.56481 4.92775 8.44833 4.88799C7.89124 4.69802 7.26692 4.57456 6.68773 4.46484C5.25288 4.19322 3.78834 3.99961 2.3232 4.03808C1.9805 4.04716 1.63065 4.07088 1.29634 4.14618C1.17127 4.17434 0.87855 4.24369 0.821418 4.36704C0.799317 4.41468 0.824852 4.40862 0.849984 4.43083C0.864218 4.44345 0.878344 4.46313 0.893186 4.47342C0.910745 4.48564 0.943049 4.49039 0.952035 4.49775C0.963238 4.50693 0.980601 4.53561 1.0014 4.55166C1.13646 4.65573 1.25092 4.70579 1.4206 4.72254C1.66891 4.74707 1.92712 4.73607 2.17674 4.74283C3.02423 4.76564 3.86779 4.81591 4.70901 4.91957C5.72619 5.04484 6.7374 5.22219 7.73842 5.43578C7.99057 5.48969 8.24626 5.56014 8.49891 5.60334C8.59803 5.6202 8.66929 5.6409 8.76589 5.60082C8.85835 5.56247 8.93759 5.32384 8.9284 5.22997ZM8.57451 5.25318C8.56815 5.31667 8.53293 5.35573 8.47377 5.37462C8.44127 5.38502 8.31127 5.40662 8.28087 5.40278C8.18741 5.39118 8.09423 5.38552 7.99925 5.37179C7.80777 5.34384 7.61265 5.31396 7.41925 5.28105C6.36847 5.10239 5.31223 4.91746 4.25004 4.80371C3.62724 4.73689 3.00657 4.69833 2.38357 4.64746C2.14838 4.62828 1.82678 4.60971 1.60956 4.51866C1.57584 4.50452 1.475 4.42176 1.46168 4.38926C1.44382 4.34565 1.47773 4.34606 1.48571 4.33021C1.49388 4.31376 1.47804 4.27258 1.50691 4.26541C1.5162 4.26308 1.52467 4.26995 1.53376 4.26753C1.54122 4.26561 1.5494 4.25541 1.55879 4.25209C1.69153 4.20475 1.77843 4.1784 1.91904 4.15841C2.247 4.11178 2.58091 4.09401 2.91482 4.09452C4.06765 4.09634 5.22785 4.2427 6.36212 4.45256C6.89518 4.55118 7.42512 4.66594 7.94103 4.83048C8.09748 4.88035 8.25172 4.9284 8.39051 5.01631C8.42684 5.03932 8.55716 5.13158 8.56452 5.17015C8.56624 5.17893 8.55958 5.18841 8.56048 5.19881C8.56199 5.21658 8.57724 5.22593 8.57451 5.25318Z" fill="#DFE0E0"/>
<path d="M9.70054 5.95287C9.69778 5.95669 9.67173 5.95056 9.67541 5.98522C9.67875 6.01662 9.70651 6.02087 9.71345 6.0335C9.72486 6.05426 9.6686 6.08483 9.65779 6.09916C9.64253 6.11938 9.64919 6.14723 9.62916 6.17133C9.6244 6.17705 9.56566 6.2281 9.55908 6.23234C9.54601 6.24075 9.52954 6.24113 9.51918 6.24791C9.50918 6.25447 9.50544 6.26951 9.49356 6.27773C9.46838 6.29519 9.33692 6.36433 9.30983 6.37133C9.27882 6.37935 9.25616 6.3762 9.22519 6.3926C9.21011 6.40058 9.19227 6.42085 9.18127 6.4243C9.16564 6.4292 9.14772 6.42511 9.13024 6.42877C9.10944 6.43313 9.09478 6.4513 9.07643 6.45563C9.06568 6.45816 9.05422 6.45549 9.04345 6.45795C8.7201 6.5322 8.39143 6.58255 8.05856 6.60331C7.17245 6.65856 6.27962 6.60855 5.39505 6.52231C4.55444 6.44036 3.70805 6.3268 2.8793 6.15308C2.51632 6.077 2.15416 5.98579 1.79959 5.88625C1.59752 5.82952 1.40699 5.74853 1.20979 5.67929C1.19123 5.67277 1.16876 5.67493 1.14882 5.66461C1.1351 5.65751 1.12087 5.63758 1.10502 5.63279C1.06183 5.61974 1.03308 5.61103 0.990299 5.59118C0.956778 5.57562 0.936818 5.57285 0.909317 5.56122C0.895408 5.55535 0.859747 5.52447 0.840884 5.5137C0.808341 5.49513 0.765052 5.47787 0.73302 5.46021C0.690393 5.43669 0.657144 5.40997 0.615463 5.3912C0.59321 5.38117 0.537642 5.33841 0.514433 5.3208C0.498917 5.30902 0.46444 5.27555 0.487399 5.25821C0.558113 5.20478 0.680321 5.22811 0.764324 5.20736C1.61486 5.1988 2.45669 5.35969 3.29729 5.47869C4.55061 5.6561 5.81469 5.79663 7.08017 5.84695C7.65627 5.86986 8.22276 5.86173 8.79586 5.84246C8.93906 5.83765 9.09269 5.85028 9.23414 5.84232C9.25497 5.84115 9.27985 5.83141 9.29929 5.83188C9.32073 5.83239 9.34318 5.84741 9.36506 5.84756C9.3814 5.84768 9.40296 5.8368 9.41579 5.83768C9.44223 5.83951 9.50606 5.86438 9.53719 5.86717C9.55009 5.86833 9.56165 5.8617 9.57092 5.86313C9.57945 5.86446 9.58569 5.87435 9.59335 5.87614C9.61091 5.88023 9.65164 5.8781 9.66247 5.89274C9.6672 5.89912 9.66686 5.90964 9.67302 5.91747C9.67828 5.92415 9.71055 5.93897 9.70054 5.95287Z" fill="#E5E5E6"/>
<path d="M8.56022 5.2C8.55931 5.1896 8.56598 5.18012 8.56427 5.17134C8.5569 5.13277 8.42659 5.04051 8.39025 5.0175C8.25146 4.92958 8.09722 4.88154 7.94077 4.83167C7.42486 4.66714 6.89493 4.55237 6.36186 4.45375C5.2276 4.2439 4.0674 4.09754 2.91456 4.09571C2.58065 4.09521 2.24674 4.11298 1.91879 4.1596C1.77817 4.17959 1.69127 4.20594 1.55853 4.25328C1.54915 4.25661 1.54098 4.26681 1.5335 4.26872C1.52442 4.27114 1.51594 4.26427 1.50665 4.2666C1.47778 4.27377 1.49363 4.31495 1.48545 4.3314C1.47748 4.34724 1.44356 4.34684 1.46143 4.39045C1.47475 4.42295 1.57559 4.50572 1.6093 4.51985C1.82653 4.61089 2.14812 4.62947 2.38331 4.64865C3.00631 4.69952 3.62699 4.73809 4.24979 4.8049C5.31198 4.91866 6.36821 5.10358 7.41899 5.28224C7.61239 5.31515 7.80751 5.34503 7.999 5.37298C8.09399 5.38671 8.18715 5.39237 8.28062 5.40397C8.311 5.40781 8.44101 5.38621 8.47352 5.37581C8.53267 5.35694 8.5679 5.31787 8.57425 5.25437C8.57698 5.22712 8.56173 5.21777 8.56022 5.2ZM8.07036 5.19C8.06622 5.19495 8.06683 5.20596 8.06532 5.20737C8.05967 5.21241 8.03575 5.20191 8.02424 5.20384C8.01132 5.20586 7.99769 5.2208 7.98508 5.22554C7.89585 5.25965 7.6651 5.21393 7.56386 5.20302C6.63026 5.10188 5.70313 4.93402 4.76863 4.81057C4.27301 4.74516 3.77326 4.69591 3.27613 4.64382C3.18155 4.63382 3.08283 4.63059 2.98906 4.61807C2.972 4.61575 2.95625 4.60475 2.93808 4.60334C2.91406 4.60132 2.89225 4.61061 2.86723 4.60869C2.84572 4.60697 2.8318 4.59445 2.81191 4.59314C2.79506 4.59203 2.78132 4.59919 2.7672 4.59818C2.73571 4.59606 2.67887 4.57284 2.64516 4.5685C2.61368 4.56457 2.57561 4.57255 2.54504 4.5678C2.41018 4.547 2.27795 4.51269 2.15147 4.46201C2.12987 4.45343 2.10887 4.46211 2.09838 4.43445C2.07628 4.37612 2.12311 4.386 2.12826 4.36844C2.13108 4.35885 2.11614 4.35028 2.11837 4.33433C2.12372 4.29446 2.17974 4.2987 2.21043 4.28971C2.23697 4.28194 2.28068 4.25973 2.304 4.2567C2.32066 4.25448 2.33408 4.26185 2.35235 4.26044C2.42836 4.25458 2.51951 4.21491 2.60027 4.21542C2.63771 4.21563 2.61561 4.22643 2.66326 4.2129C2.70848 4.20018 2.72543 4.21109 2.76682 4.21068C2.88542 4.20948 3.02149 4.1911 3.13999 4.1803C3.18481 4.17616 3.23256 4.19625 3.27071 4.19484C3.34853 4.19202 3.43373 4.18182 3.51336 4.18485C3.53779 4.18576 3.56969 4.19454 3.59391 4.19534C3.70141 4.19878 3.80275 4.19171 3.91136 4.20069C4.08912 4.21553 4.27212 4.2229 4.45118 4.24097C4.48933 4.2448 4.5286 4.25227 4.56757 4.2557C4.64367 4.26246 4.71403 4.26681 4.78934 4.27074C4.81316 4.27205 4.84162 4.28992 4.8605 4.29072C4.9253 4.29335 4.99061 4.29728 5.05642 4.30647C5.19108 4.32534 5.32452 4.34675 5.45917 4.35764C5.48198 4.35957 5.5054 4.37551 5.5272 4.38045C5.58191 4.39287 5.64702 4.39297 5.70253 4.40185C5.77531 4.41356 5.84415 4.42971 5.91581 4.44081C6.46513 4.52601 7.01848 4.65087 7.54357 4.8253C7.63694 4.84579 7.72254 4.88304 7.81137 4.91554C7.86527 4.93532 7.90111 4.95076 7.94511 4.98347C7.97984 5.00921 8.04707 5.03455 8.06796 5.06735C8.07372 5.07634 8.07594 5.09441 8.08239 5.10086C8.0938 5.11216 8.12155 5.11277 8.11984 5.14427C8.11791 5.18081 8.08025 5.1784 8.07036 5.19Z" fill="#E5E5E6"/>
<path d="M8.08242 5.09886C8.09392 5.11025 8.12166 5.1108 8.11994 5.14226C8.11795 5.17881 8.08031 5.17638 8.07048 5.18802C8.06628 5.19298 8.06697 5.20396 8.06538 5.20538C8.05978 5.21043 8.03586 5.19998 8.02435 5.20182C8.01136 5.20388 7.99781 5.21877 7.98518 5.2236C7.8959 5.25769 7.66514 5.21198 7.56396 5.20103C6.63037 5.09994 5.70317 4.93203 4.76874 4.80862C4.27309 4.74315 3.77336 4.69395 3.27615 4.6418C3.18164 4.63189 3.0829 4.6286 2.98909 4.6161C2.97201 4.61383 2.95628 4.60281 2.93819 4.60133C2.91412 4.59937 2.8923 4.60867 2.86732 4.60671C2.84579 4.60503 2.8318 4.59249 2.81197 4.59119C2.79509 4.59008 2.78142 4.59718 2.76728 4.59623C2.73572 4.5941 2.67895 4.57086 2.64521 4.56656C2.61368 4.56255 2.57564 4.57054 2.54505 4.56584C2.41018 4.54507 2.27797 4.51072 2.15154 4.46008C2.12994 4.45142 2.10888 4.46013 2.09843 4.43252C2.07632 4.37416 2.12313 4.38405 2.12831 4.36643C2.13111 4.35689 2.1162 4.3483 2.11837 4.33233C2.12376 4.29251 2.17979 4.29668 2.21048 4.28773C2.23695 4.27999 2.28071 4.2578 2.30399 4.25475C2.32064 4.25257 2.33406 4.25985 2.35239 4.25843C2.42834 4.25261 2.51954 4.21292 2.60031 4.21342C2.63771 4.21364 2.61564 4.22448 2.66331 4.21097C2.70847 4.19817 2.72547 4.20913 2.76685 4.20871C2.88548 4.20748 3.02147 4.1891 3.14002 4.17829C3.18487 4.17419 3.23254 4.19426 3.2707 4.19288C3.34858 4.19005 3.43373 4.17986 3.51336 4.18287C3.5378 4.1838 3.56971 4.19254 3.59399 4.19334C3.70142 4.19686 3.80283 4.18974 3.91138 4.19876C4.0892 4.21354 4.27212 4.22091 4.45127 4.23896C4.48935 4.2428 4.52865 4.25027 4.56762 4.25375C4.64373 4.26053 4.71407 4.26482 4.78934 4.26881C4.81319 4.27007 4.84161 4.28797 4.86053 4.28874C4.9253 4.29141 4.99062 4.29533 5.0565 4.30456C5.19106 4.32341 5.32459 4.34479 5.45921 4.35572C5.482 4.35757 5.50544 4.37351 5.52728 4.37849C5.58193 4.39093 5.64707 4.391 5.70255 4.39993C5.7753 4.41164 5.84419 4.42771 5.91583 4.43882C6.46515 4.52405 7.01854 4.64887 7.54359 4.82332C7.63698 4.84383 7.72258 4.88103 7.81137 4.91358C7.86534 4.93337 7.90113 4.94876 7.94516 4.98148C7.97984 5.00725 8.04707 5.03261 8.06797 5.06538C8.07369 5.07436 8.07599 5.09247 8.08242 5.09886Z" fill="#E8E9E9"/>
</g>
<defs>
<clipPath id="clip0_9376_89318">
<rect width="9.99685" height="2.70173" fill="white" transform="translate(0 4)"/>
</clipPath>
</defs>
</svg>
