<svg width="10" height="10" viewBox="0 0 10 10" fill="none" xmlns="http://www.w3.org/2000/svg">
<mask id="mask0_8937_77512" style="mask-type:luminance" maskUnits="userSpaceOnUse" x="0" y="0" width="10" height="10">
<path d="M10 0.00585938H0V9.99365H10V0.00585938Z" fill="white"/>
</mask>
<g mask="url(#mask0_8937_77512)">
<path d="M0.00955488 5.49706L0.0048122 5.54383L0.0047588 5.54435C0.0016512 5.57459 0.00166909 5.60506 0.0048122 5.63529L0.00893364 5.65256C0.0141014 5.67421 0.022464 5.69498 0.0337471 5.71418C0.0398601 5.72457 0.046802 5.73446 0.0545055 5.74375L0.0549063 5.74424C0.0641604 5.75538 0.074439 5.76565 0.0856077 5.7749L0.10006 5.78685L0.112453 5.79523C0.124396 5.8033 0.137105 5.81017 0.150398 5.81575C0.166766 5.82261 0.183909 5.82747 0.201451 5.83021L0.213985 5.83216C0.22609 5.83405 0.238325 5.83499 0.250576 5.83499C0.265054 5.83499 0.279502 5.83368 0.293737 5.83104L0.294524 5.83089C0.311818 5.82769 0.328719 5.82265 0.344936 5.81585L0.365173 5.80736L0.410697 5.78685L0.455329 5.761L0.505316 5.72979L0.57405 5.67987L0.618682 5.64956L0.671347 5.6139C0.701653 5.59371 0.733446 5.57586 0.766452 5.56048L0.77043 5.55862L0.844518 5.52117L1.0043 5.45788L1.15962 5.41151L1.21496 5.39547L1.38456 5.3598L1.53809 5.33752L1.71127 5.32057L1.78714 5.31344H2.04422L2.18258 5.31968L2.40573 5.3402L2.63693 5.37228L2.89044 5.42399L3.20018 5.50602L3.33587 5.54882L3.52242 5.61746L3.82592 5.73871L3.96963 5.80915L4.17226 5.91702L4.36686 6.0347L4.61858 6.2041L4.85603 6.38954L5.07026 6.58033L5.26485 6.78093L5.41482 6.95121L5.59334 7.18658L5.75936 7.45493L5.81024 7.54944L5.87988 7.68139L5.93879 7.82672L5.98967 7.96133L6.01733 8.05227L6.05215 8.18512L6.06911 8.25643L6.09678 8.3759L6.10985 8.523L6.11642 8.63267V8.72093L6.10985 8.78691L6.09678 8.85645L6.08786 8.92331L6.08237 8.97413L6.07776 9.00043C6.07439 9.01971 6.07268 9.03925 6.07268 9.05883V9.09463C6.07268 9.10935 6.07418 9.12404 6.07715 9.13847L6.07809 9.14305C6.08094 9.15686 6.08542 9.17031 6.09143 9.18307L6.09472 9.19004C6.10466 9.21115 6.11951 9.22957 6.13802 9.2438C6.14895 9.2522 6.161 9.25901 6.17383 9.26404L6.17982 9.2664C6.19493 9.27232 6.21071 9.27631 6.22682 9.27827L6.23677 9.27949C6.26079 9.28241 6.28508 9.28211 6.30902 9.2786L6.33133 9.27531L6.39658 9.25646L6.479 9.22216L6.48434 9.21915C6.56188 9.17552 6.63531 9.12493 6.70368 9.06802L6.72452 9.05067L6.73775 9.03695C6.78839 8.98443 6.83502 8.92822 6.87729 8.86878L6.89793 8.83973L6.94945 8.74542L6.95726 8.72696C6.98634 8.65819 7.01015 8.58731 7.02842 8.51493L7.04731 8.44017L7.0662 8.29098V8.13492V7.94629L7.04903 7.80052L7.03702 7.71134L7.01641 7.61531L6.97005 7.43011L6.91511 7.24147L6.8533 7.07684L6.71765 6.8059L6.58238 6.57923L6.41705 6.33674L6.18172 6.04813L5.99405 5.84432L5.83764 5.69556L5.63358 5.51405L5.26718 5.23437L4.93949 5.02611L4.68329 4.8818L4.39285 4.73899L4.15303 4.63336L3.81939 4.51137L3.34872 4.38194L2.94804 4.30607L2.62929 4.26442L2.39395 4.24805H2.18691L1.96647 4.25548L1.749 4.27482L1.58665 4.30012L1.40196 4.34029L1.19044 4.40576L0.993832 4.48015L0.803178 4.56794L0.646782 4.65868L0.478469 4.7762L0.351862 4.88033L0.240151 4.99785L0.159719 5.10347L0.101629 5.19571L0.0810554 5.23939C0.0630242 5.27766 0.0480888 5.31731 0.0363918 5.35797C0.0233091 5.40344 0.0143277 5.44999 0.00955488 5.49706Z" fill="url(#paint0_linear_8937_77512)"/>
<path d="M4.18354 8.26735C4.13317 8.2241 4.08565 8.13754 4.04313 8.08353C3.95554 7.97223 3.8581 7.86327 3.75522 7.76586C3.13392 7.17763 2.22489 6.82947 1.36806 6.90038C1.29198 6.90618 1.2162 6.91527 1.14093 6.9277C1.02615 6.94775 0.792132 7.02796 0.687395 6.99615C0.583091 6.96449 0.500439 6.89831 0.446409 6.80406C0.383877 6.69358 0.368158 6.56272 0.402745 6.44062C0.458947 6.24559 0.624741 6.10747 0.795627 6.01167C1.38883 5.67913 2.24024 5.72935 2.87421 5.90778C3.66 6.12889 4.36816 6.55185 4.90339 7.17148C5.03559 7.32456 5.16279 7.488 5.26172 7.66483C5.47396 8.02169 5.64807 8.58275 5.54297 8.99702C5.49855 9.17204 5.389 9.3358 5.23084 9.42696C5.1215 9.49001 4.99824 9.50981 4.87593 9.4757C4.77555 9.4477 4.71175 9.39141 4.66233 9.30089C4.58052 9.15111 4.53777 8.97151 4.47674 8.81205C4.40274 8.61874 4.29449 8.44139 4.18354 8.26735Z" fill="url(#paint1_linear_8937_77512)"/>
<path d="M0.930222 2.3841C0.754623 2.54574 0.722174 2.68148 0.727901 2.72915V2.76986C0.727901 2.78823 0.731376 2.80646 0.738144 2.82356C0.742672 2.835 0.748627 2.84582 0.755869 2.85576L0.758563 2.85946C0.768625 2.87328 0.780583 2.88561 0.794085 2.8961L0.794954 2.89678C0.809497 2.90808 0.825605 2.9172 0.842775 2.92386L0.848226 2.92599C0.856081 2.92904 0.864211 2.93134 0.872503 2.93284C0.890371 2.93609 0.908716 2.93561 0.926397 2.93147L0.930222 2.93057C0.964064 2.91942 0.996756 2.90506 1.02785 2.88766L1.04104 2.88029L1.09378 2.84797L1.14892 2.81324L1.19567 2.7869L1.22683 2.77014L1.28078 2.74141L1.44739 2.66838L1.57925 2.61451L1.66435 2.58457L1.88611 2.51394L2.03234 2.47683L2.14143 2.45289L2.28887 2.42414L2.42551 2.405L2.52621 2.39302L2.64966 2.38225L2.81749 2.37027H3.05123H3.19627L3.37248 2.38225L3.65416 2.41098L3.8927 2.44689L4.20436 2.51035L4.41053 2.56063L4.68743 2.63845L4.82647 2.68156L4.99548 2.73782L5.13453 2.7893L5.29635 2.85156L5.5361 2.95092L5.65836 3.00361L5.7998 3.07544L5.99759 3.16762L6.21814 3.29572L6.49624 3.46214L6.74556 3.62496L6.9889 3.80094L7.27657 4.03081L7.51152 4.24512L7.8064 4.54203L8.01258 4.77309L8.12284 4.91197L8.28347 5.13705L8.4357 5.36931L8.57715 5.62312L8.67904 5.83981L8.77134 6.06728L8.83486 6.26842L8.87442 6.43842L8.90079 6.57969L8.91638 6.69223L8.92596 6.85146L8.93144 6.92692C8.93273 6.94469 8.93561 6.96234 8.94003 6.9796L8.94676 7.0059C8.95179 7.02554 8.96052 7.04402 8.97249 7.06038L8.97313 7.06124C8.98469 7.07706 8.99918 7.09052 9.01582 7.1009C9.02948 7.10943 9.04441 7.11577 9.06006 7.11968L9.06388 7.12063C9.07608 7.12368 9.08861 7.12522 9.10119 7.12522H9.10854C9.1202 7.12522 9.13181 7.12334 9.14287 7.11965C9.15454 7.11577 9.16547 7.10992 9.17519 7.10237L9.20612 7.07834C9.2215 7.0664 9.2358 7.05316 9.24888 7.03875L9.27357 7.01157C9.2936 6.9895 9.3119 6.96593 9.32831 6.94105C9.34621 6.91391 9.36178 6.8853 9.37487 6.85555L9.41055 6.77445L9.44872 6.65053L9.48117 6.52471L9.50217 6.34551L9.51171 6.17584V5.9528L9.4869 5.75073L9.4659 5.63063L9.43346 5.5029L9.3781 5.29892L9.30748 5.10257L9.21777 4.90049L9.10515 4.68317L8.92002 4.38005L8.74633 4.13413L8.54782 3.87105L8.19471 3.48979L7.75762 3.08754L7.37206 2.78633L6.94452 2.49656L6.48261 2.22968L6.07989 2.03714L5.70959 1.87891L5.43665 1.78358L4.9652 1.65204L4.58728 1.57007L4.07766 1.50526L3.69783 1.48047H3.28746L2.96488 1.50526L2.7244 1.53958L2.5049 1.5796L2.23577 1.64633L2.02391 1.71685L1.8254 1.79312L1.57536 1.91704L1.31959 2.07146C1.26297 2.10832 1.10582 2.22245 0.930222 2.3841Z" fill="url(#paint2_linear_8937_77512)"/>
<path d="M4.60306 0.51878C4.86154 0.499352 5.13406 0.523741 5.39237 0.546923C6.80495 0.673694 8.18746 1.33498 9.10164 2.43042C9.56141 2.98138 10.0615 3.90174 9.99379 4.64196C9.94103 4.71763 9.88369 4.75188 9.79721 4.78047C9.74879 4.76527 9.70117 4.74805 9.66941 4.70614C9.59924 4.61349 9.56515 4.48439 9.50922 4.38136C9.37233 4.12902 9.2111 3.89061 9.02782 3.66956C8.66035 3.22632 8.22575 2.84857 7.76312 2.50779C6.82499 1.8205 5.72863 1.38025 4.57521 1.2277C4.31638 1.19363 4.05598 1.17002 3.79457 1.17365C3.5929 1.17645 3.37729 1.19138 3.17766 1.22078C3.0761 1.23573 2.97595 1.26053 2.87443 1.27484C2.81169 1.28368 2.72144 1.28782 2.66955 1.2452C2.63639 1.21799 2.61155 1.16149 2.60813 1.11866C2.60412 1.06916 2.62655 1.02558 2.65925 0.989827C2.84879 0.782445 3.54747 0.633286 3.827 0.59054C4.08413 0.551967 4.34323 0.528009 4.60306 0.51878Z" fill="url(#paint3_linear_8937_77512)"/>
<path d="M1.50087 7.3192C1.5472 7.31463 1.59452 7.31644 1.64097 7.31914C2.36348 7.36139 3.04413 7.73432 3.51941 8.27047C3.70246 8.47695 3.84993 8.69566 3.94023 8.95739C3.96368 9.02532 3.98828 9.09925 3.98302 9.1721C3.97883 9.23002 3.95345 9.28594 3.90759 9.32265C3.83658 9.37941 3.74998 9.37869 3.66452 9.36911C3.13395 9.29052 2.63831 9.03129 2.2099 8.71853C1.9638 8.53884 1.19046 7.87046 1.14675 7.56721C1.13903 7.51369 1.14903 7.46745 1.18302 7.4248C1.25768 7.3311 1.39185 7.33018 1.50087 7.3192Z" fill="url(#paint4_linear_8937_77512)"/>
<path d="M1.67856 2.90506C0.623272 3.14828 0.163278 3.85771 0.0651909 4.18202L0.0595032 4.21849C0.0525555 4.26302 0.0544885 4.30849 0.0651909 4.35229L0.0742109 4.40059C0.0770419 4.41574 0.0827568 4.43022 0.0910461 4.44323C0.105245 4.46551 0.126375 4.48253 0.151191 4.49166L0.159672 4.49478C0.191787 4.5044 0.226054 4.5057 0.258784 4.49844C0.269763 4.49601 0.280511 4.49263 0.290911 4.48835L0.296436 4.48608C0.310187 4.48043 0.323439 4.47363 0.336052 4.46575L0.356458 4.45302L0.403195 4.42353L0.435173 4.39651L0.469611 4.36948L0.531106 4.3228L0.570463 4.29823L0.659016 4.24172L0.786928 4.16802L1.12555 4.01318C3.34078 3.2319 5.41352 4.70379 5.70676 4.87768C5.99999 5.05158 6.69184 5.61904 7.19127 6.46107C7.55671 7.07721 7.60725 7.7218 7.58384 8.03364C7.57991 8.08606 7.56735 8.13706 7.55565 8.18832C7.53934 8.25975 7.52282 8.35667 7.52459 8.43962C7.52561 8.48745 7.5429 8.52119 7.56659 8.54451C7.62747 8.60445 7.72684 8.58469 7.80572 8.55177C8.7051 8.17629 8.79629 6.18203 7.1059 4.56277C5.34166 2.87277 2.99765 2.60103 1.67856 2.90506Z" fill="url(#paint5_linear_8937_77512)"/>
</g>
<defs>
<linearGradient id="paint0_linear_8937_77512" x1="8.50762e-05" y1="5.77554" x2="5.58638" y2="10.0602" gradientUnits="userSpaceOnUse">
<stop offset="0.136003" stop-color="#F395AD"/>
<stop offset="0.415828" stop-color="#ED90A2"/>
<stop offset="0.75759" stop-color="#B0B5CA"/>
<stop offset="1" stop-color="#79CCDC"/>
</linearGradient>
<linearGradient id="paint1_linear_8937_77512" x1="0.384766" y1="6.7926" x2="4.61658" y2="10.1001" gradientUnits="userSpaceOnUse">
<stop stop-color="#82BEE0"/>
<stop offset="1" stop-color="#A5DE80"/>
</linearGradient>
<linearGradient id="paint2_linear_8937_77512" x1="0.727295" y1="2.8825" x2="8.65722" y2="7.68562" gradientUnits="userSpaceOnUse">
<stop stop-color="#FF997C"/>
<stop offset="0.393094" stop-color="#FFC75A"/>
<stop offset="0.918269" stop-color="#E399C2"/>
<stop offset="1" stop-color="#85BFDF"/>
</linearGradient>
<linearGradient id="paint3_linear_8937_77512" x1="2.60766" y1="1.19013" x2="9.81462" y2="4.7875" gradientUnits="userSpaceOnUse">
<stop stop-color="#FFAE5E"/>
<stop offset="0.5" stop-color="#FDD04E"/>
<stop offset="1" stop-color="#FE917B"/>
</linearGradient>
<linearGradient id="paint4_linear_8937_77512" x1="3.41858" y1="7.58731" x2="2.30467" y2="8.78921" gradientUnits="userSpaceOnUse">
<stop stop-color="#7CDCD1"/>
<stop offset="1" stop-color="#7BD8CE"/>
</linearGradient>
<linearGradient id="paint5_linear_8937_77512" x1="0.171316" y1="4.49085" x2="7.63448" y2="8.59924" gradientUnits="userSpaceOnUse">
<stop stop-color="#FF997C"/>
<stop offset="0.391594" stop-color="#FDC558"/>
<stop offset="0.75" stop-color="#E399C2"/>
<stop offset="1" stop-color="#85BFDF"/>
</linearGradient>
</defs>
</svg>
