<svg width="10" height="10" viewBox="0 0 10 10" fill="none" xmlns="http://www.w3.org/2000/svg">
<path d="M8.87104 3.75V7.23387L4.99739 9.47043L1.12104 7.23387V2.75806L4.99739 0.518817L7.97588 2.23925L8.42481 1.98118L4.99739 0L0.672119 2.49731V7.49193L4.99739 9.98925L9.32266 7.49193V3.48925L8.87104 3.75Z" fill="#4BBCCF"/>
<path d="M3.91152 7.23402H3.26367V5.05929H5.42496C5.62926 5.0566 5.8255 4.97327 5.96797 4.8281C6.11313 4.68294 6.19378 4.48671 6.19378 4.28241C6.19378 4.18025 6.17496 4.08079 6.13733 3.98671C6.097 3.89262 6.04055 3.80929 5.96797 3.73939C5.89808 3.66681 5.81206 3.61036 5.72066 3.57004C5.62657 3.52972 5.52711 3.5109 5.42496 3.5109H3.26367V2.84961H5.42765C5.80668 2.8523 6.16959 3.00284 6.43571 3.27165C6.70453 3.54047 6.85507 3.90337 6.85776 4.27972C6.86045 4.57004 6.77174 4.8523 6.60507 5.08886C6.45184 5.31466 6.2341 5.49208 5.98141 5.59961C5.73141 5.68025 5.47066 5.71789 5.20722 5.7152H3.91152V7.23402Z" fill="#4BBCCF"/>
<path d="M6.84408 7.17935H6.0887L5.50537 6.16053C5.73655 6.14709 5.96505 6.09871 6.18279 6.02344L6.84408 7.17935Z" fill="#4BBCCF"/>
<path d="M8.41943 3.02371L8.86836 3.27371L9.3146 3.0264V2.50221L8.86836 2.24414L8.42212 2.50221V3.02371H8.41943Z" fill="#4BBCCF"/>
</svg>
