<svg width="41" height="42" viewBox="0 0 41 42" fill="none" xmlns="http://www.w3.org/2000/svg">
<mask id="mask0_4047_275328" style="mask-type:luminance" maskUnits="userSpaceOnUse" x="0" y="0" width="41" height="42">
<path d="M40.3183 0.757812H0V41.2437H40.3183V0.757812Z" fill="white"/>
</mask>
<g mask="url(#mask0_4047_275328)">
<mask id="mask1_4047_275328" style="mask-type:alpha" maskUnits="userSpaceOnUse" x="-7" y="5" width="42" height="43">
<path fill-rule="evenodd" clip-rule="evenodd" d="M28.5893 28.9098C32.2753 26.7005 34.7424 22.6666 34.7424 18.0565C34.7424 11.0732 29.0813 5.41211 22.098 5.41211C17.1656 5.41211 12.8928 8.23633 10.8085 12.3559L-6.97412 30.1386L10.1932 47.3059L28.5893 28.9098Z" fill="#795E5E"/>
</mask>
<g mask="url(#mask1_4047_275328)">
<path fill-rule="evenodd" clip-rule="evenodd" d="M21.8093 4.49493L21.8158 4.48828C19.8226 4.52563 17.8973 5.06264 16.2416 6.11286C14.9998 7.43313 13.7847 8.78001 12.6087 10.1637C11.3284 11.6669 10.0934 13.211 8.91867 14.8064C8.48158 15.4056 8.05099 16.0135 7.64446 16.6455C8.27647 16.239 8.88441 15.8084 9.48364 15.3713C10.1906 14.8493 10.8885 14.3161 11.5763 13.7727C14.9381 11.1203 18.088 8.21615 21.1136 5.2032C21.346 4.96831 21.5771 4.73217 21.8093 4.49493ZM20.3165 12.3897C22.5592 10.1217 24.7811 7.82636 26.9401 5.47477C26.0387 5.10696 25.1133 4.84153 24.1868 4.68118C22.1886 6.54259 20.2286 8.44437 18.2897 10.3629C16.0589 12.614 13.8501 14.8937 11.7042 17.2296C8.59244 20.6125 5.60666 24.1126 2.86154 27.8179C6.20886 25.337 9.3907 22.6619 12.4667 19.8721C15.1477 17.4445 17.7508 14.9326 20.3165 12.3897ZM30.7895 7.81634C27.6244 11.3209 24.3422 14.7171 21.0203 18.0694C19.0276 20.0469 17.0196 22.0093 14.9823 23.9402C10.5324 28.1595 5.94405 32.2336 1.07422 35.9887C4.91518 31.0077 9.09023 26.3209 13.413 21.7752C15.2516 19.8428 17.1156 17.9357 18.9935 16.0426C22.2627 12.8038 25.5745 9.60096 28.9859 6.50879C29.6095 6.89101 30.213 7.32622 30.7895 7.81634ZM33.7757 11.2474C33.3891 10.6282 32.9483 10.0303 32.455 9.45951C28.9482 12.6268 25.5487 15.9123 22.1942 19.2364C20.2155 21.2303 18.251 23.2404 16.3179 25.2799C12.0997 29.7287 8.02905 34.3162 4.2749 39.1825C9.24692 35.348 13.9272 31.182 18.4652 26.867C20.4053 25.0206 22.3201 23.1489 24.221 21.2632C27.4676 17.9862 30.6771 14.6678 33.7757 11.2474ZM34.8181 13.2802C35.1934 14.1692 35.4675 15.0833 35.6389 15.9987C33.7579 18.0216 31.8316 20.0036 29.8911 21.967C27.6179 24.2199 25.3147 26.4496 22.9543 28.6175C19.5935 31.7072 16.1154 34.6684 12.4361 37.3952C14.9049 34.0624 17.568 30.8952 20.3456 27.8313C22.7829 25.1356 25.3081 22.5192 27.8643 19.9402C30.1444 17.6854 32.452 15.4513 34.8181 13.2802ZM34.4827 23.681C35.3953 22.0692 35.8497 20.234 35.8559 18.3404C35.5831 18.6056 35.3115 18.8721 35.0423 19.1388C31.995 22.1987 29.0602 25.3844 26.3835 28.7882C25.8708 29.4403 25.368 30.1001 24.8742 30.7688C24.436 31.3691 24.0065 31.9759 23.6 32.6079C24.232 32.2014 24.8399 31.7708 25.4391 31.3337C26.9049 30.253 28.3296 29.1223 29.7184 27.9513C31.3512 26.577 32.9353 25.1474 34.4827 23.681Z" fill="url(#paint0_linear_4047_275328)"/>
</g>
</g>
<defs>
<linearGradient id="paint0_linear_4047_275328" x1="29.09" y1="81.8455" x2="70.8785" y2="32.0515" gradientUnits="userSpaceOnUse">
<stop stop-color="#FF2189"/>
<stop offset="1" stop-color="#FF9D00"/>
</linearGradient>
</defs>
</svg>
