<svg width="10" height="10" viewBox="0 0 10 10" fill="none" xmlns="http://www.w3.org/2000/svg">
<g clip-path="url(#clip0_7743_392886)">
<path d="M8.39259 1.27513V1.45932C8.35321 1.60058 8.33353 1.74903 8.31017 1.8938C7.92681 4.26712 7.54862 6.64094 7.17393 9.0156C7.12288 9.21381 6.95389 9.33821 6.76504 9.39264H6.58103C6.41538 9.35441 6.28125 9.26507 6.20601 9.10928L5.50568 6.18375C5.3889 5.75393 4.97234 5.4699 4.53442 5.4557C3.45473 5.62803 2.38622 5.87149 1.30953 6.06402C1.01342 6.08072 0.833412 5.90772 0.75 5.63855V5.42598C0.790705 5.33414 0.82407 5.24263 0.897807 5.17033C3.04501 3.67133 5.16753 2.13242 7.33141 0.659136L7.50107 0.609375H7.71327C8.06561 0.678172 8.31768 0.92397 8.39259 1.27513Z" fill="#DEFE18"/>
</g>
<defs>
<clipPath id="clip0_7743_392886">
<rect width="7.64259" height="8.78327" fill="white" transform="translate(0.75 0.609375)"/>
</clipPath>
</defs>
</svg>
