<svg width="10" height="10" viewBox="0 0 10 10" fill="none" xmlns="http://www.w3.org/2000/svg">
<g clip-path="url(#clip0_9239_83120)">
<path d="M9 5C9 7.20913 7.20913 9 5 9C2.79087 9 1 7.20913 1 5C1 2.79087 2.79087 1 5 1C7.20913 1 9 2.79087 9 5Z" fill="#FFD15C"/>
<path d="M7.94362 4.38697C7.74127 4.10362 7.52651 3.95508 7.39208 3.88291C7.34488 3.79619 7.2926 3.71078 7.23518 3.62684C7.06969 3.38493 6.89724 3.17516 6.72274 3.00335C6.55953 2.8427 6.38925 2.71012 6.21664 2.60932C5.91625 2.43388 5.60472 2.34829 5.2642 2.34766C5.26289 2.34766 5.26162 2.34766 5.2603 2.34766C4.94856 2.34766 4.66384 2.41858 4.42632 2.48802C4.35814 2.50794 4.28891 2.5295 4.22182 2.55043C4.05035 2.60381 3.88837 2.65428 3.75169 2.67677C3.65857 2.69211 3.58557 2.72724 3.5348 2.78117C3.48686 2.83209 3.45828 2.90019 3.44994 2.98353C3.43435 3.13939 3.48964 3.34823 3.60984 3.58748C3.85028 4.06604 4.31082 4.59289 4.78315 4.92975C4.83162 4.96434 4.8776 5.00246 4.92081 5.04361C4.92017 5.04377 4.91953 5.0439 4.91886 5.04403C4.55157 5.09647 4.36019 5.49122 4.2827 5.70451C4.26249 5.76013 4.31747 5.80997 4.37362 5.79101C4.59618 5.71599 5.04472 5.59592 5.30734 5.73899C5.3564 5.97363 5.33571 6.20368 5.24717 6.38345C5.19286 6.4937 5.11548 6.58183 5.01719 6.64543C4.91118 6.71402 4.78315 6.75236 4.63656 6.75943C4.47771 6.76711 4.29764 6.73788 4.1014 6.67255C3.88786 6.60144 3.65336 6.48696 3.40443 6.33223L3.39982 6.3294L3.39503 6.32685C3.3922 6.32532 3.38923 6.32363 3.38626 6.32186C3.74258 5.89245 3.52533 5.24395 3.43838 5.03018C3.42677 5.00166 3.38745 5.00186 3.37178 5.02839C3.16819 5.3731 2.75061 5.34752 2.75802 5.75805C2.75786 5.75772 2.75769 5.75743 2.75752 5.75712C2.43827 5.49753 2.2013 5.84288 1.80406 5.79101C1.77351 5.78704 1.74915 5.81793 1.76449 5.84461C1.87905 6.04414 2.25427 6.61161 2.80912 6.59891C2.83115 6.62292 2.85662 6.65071 2.87636 6.67255L2.94331 6.74642C3.21522 7.04649 3.51302 7.28459 3.82847 7.45416C4.12228 7.6121 4.43153 7.71094 4.74765 7.74801C4.84234 7.75912 4.93728 7.76463 5.03215 7.76463C5.58256 7.76463 6.12966 7.57955 6.59835 7.23045C6.86127 7.03462 7.086 6.79829 7.26623 6.52805C7.4507 6.25148 7.57985 5.95214 7.65004 5.63841C7.69682 5.42941 7.71623 5.21859 7.70831 5.00831C7.88236 4.95654 8.07454 5.10999 8.16861 5.20007C8.19157 5.22205 8.22944 5.20842 8.22838 5.17664C8.22351 5.03258 8.1822 4.72113 7.94362 4.38697ZM6.3576 7.00725C5.8846 7.34256 5.32851 7.49181 4.78519 7.4281C4.50949 7.39577 4.23893 7.30908 3.981 7.1704C3.73475 7.03805 3.49921 6.85773 3.27937 6.63344C3.77066 6.93179 4.20964 7.08271 4.58601 7.08271C4.60826 7.08271 4.63029 7.0822 4.65207 7.08115C4.85615 7.07127 5.03784 7.01567 5.19213 6.91581C5.33996 6.82019 5.45566 6.68893 5.53608 6.52578C5.60768 6.38045 5.64751 6.217 5.65445 6.03985C5.66094 5.87448 5.63866 5.70548 5.58816 5.53753C5.4821 5.18507 5.26264 4.87608 4.97021 4.6675C4.75363 4.51302 4.53635 4.31275 4.34202 4.0884C4.18479 3.90693 4.05107 3.72009 3.95075 3.54223L3.95078 3.54201C3.95078 3.54201 3.94998 3.54079 3.94871 3.53859C3.94768 3.53676 3.94666 3.53494 3.94566 3.53312C3.92901 3.50203 3.88523 3.39885 4.02315 3.37915C5.32598 3.19307 7.97688 5.66815 6.3576 7.00725Z" fill="black"/>
<path d="M4.02308 3.38102C3.88513 3.40072 3.92894 3.50385 3.94559 3.53499C3.9466 3.53681 3.94762 3.53863 3.94864 3.54046C3.94995 3.54266 3.95071 3.54388 3.95071 3.54388L3.95068 3.5441C4.051 3.72196 4.18472 3.9088 4.34195 4.09027C4.53634 4.31462 4.75356 4.51489 4.97014 4.66937C5.2626 4.87795 5.48207 5.18694 5.58807 5.5394C5.63859 5.70734 5.66087 5.87635 5.65439 6.04172C5.64744 6.21882 5.60761 6.38231 5.53601 6.52764C5.45559 6.6908 5.33989 6.82206 5.19206 6.91768C5.03775 7.0175 4.85604 7.07314 4.652 7.08302C4.63022 7.08407 4.60814 7.08458 4.58594 7.08458C4.20957 7.08458 3.7706 6.93366 3.2793 6.63531C3.49914 6.8596 3.73468 7.03992 3.98093 7.17227C4.23886 7.31095 4.50942 7.39764 4.78512 7.42997C5.32844 7.49364 5.88453 7.34437 6.35753 7.00912C7.97681 5.67002 5.32591 3.19494 4.02308 3.38102Z" fill="white"/>
<path d="M3.16138 6.31776C3.16194 6.3169 3.16223 6.31641 3.16223 6.31641C3.16216 6.31634 3.16189 6.31681 3.16138 6.31776Z" fill="black"/>
<path d="M5.38022 3.28991C5.33501 3.22659 5.24451 3.05469 5.525 3.05469C5.80551 3.05469 6.23407 3.37228 6.32123 3.48977C6.29406 3.56138 6.1131 3.57738 6.02266 3.57044C5.93216 3.5635 5.77836 3.54863 5.66075 3.48977C5.54308 3.43092 5.42547 3.35326 5.38022 3.28991Z" fill="white"/>
</g>
<defs>
<clipPath id="clip0_9239_83120">
<rect width="8" height="8" fill="white" transform="translate(1 1)"/>
</clipPath>
</defs>
</svg>
