<svg width="10" height="10" viewBox="0 0 10 10" fill="none" xmlns="http://www.w3.org/2000/svg">
<g clip-path="url(#clip0_9495_280013)">
<path d="M1.17238 3.23546C1.16033 3.26256 1.14829 3.28966 1.13625 3.31676C1.14904 3.2874 1.16184 3.2588 1.17538 3.23019C1.17388 3.23245 1.17313 3.23395 1.17238 3.23546ZM1.18367 3.21061C1.18292 3.21363 1.18141 3.21739 1.1799 3.2204C1.18969 3.19932 1.19872 3.17975 1.20851 3.15942C1.19947 3.17599 1.19195 3.1933 1.18367 3.21061ZM1.2198 3.13534V3.13684C1.23486 3.10598 1.25066 3.07511 1.26647 3.045C1.24991 3.07436 1.23485 3.10523 1.2198 3.13534ZM1.29583 2.98855C1.28604 3.00737 1.2755 3.02618 1.26647 3.045C1.28228 3.01489 1.29884 2.98478 1.3154 2.95467C1.30862 2.96596 1.3026 2.97725 1.29583 2.98855ZM1.46445 2.70625C1.43434 2.75217 1.40498 2.79884 1.37638 2.84702C1.37261 2.85304 1.3696 2.85906 1.36659 2.86509C1.40122 2.80561 1.4381 2.74765 1.47574 2.68969C1.47122 2.69495 1.46746 2.70023 1.46445 2.70625ZM1.50133 2.65054C1.4923 2.66334 1.48327 2.67614 1.47574 2.68969C1.49004 2.66786 1.50434 2.64602 1.5194 2.62495C1.51338 2.63323 1.50735 2.64151 1.50133 2.65054ZM1.56381 2.56171C1.59392 2.51956 1.62478 2.4774 1.6564 2.436C1.62403 2.47665 1.59242 2.51881 1.56381 2.56171ZM1.70231 2.37578C1.68651 2.39535 1.6707 2.41567 1.6564 2.436C1.67748 2.40815 1.6993 2.38104 1.72038 2.35394C1.71436 2.36072 1.70834 2.36824 1.70231 2.37578ZM2.06966 1.97228C2.06891 1.97228 2.06891 1.97303 2.06816 1.97303C2.05762 1.98357 2.04708 1.99411 2.03654 2.00541C2.0659 1.9768 2.09526 1.94819 2.12461 1.92034C2.10655 1.9369 2.08772 1.95422 2.06966 1.97228ZM2.22097 1.83226C2.19537 1.85485 2.16978 1.87818 2.14419 1.90152C2.13741 1.90754 2.13139 1.91357 2.12461 1.92034C2.18483 1.86539 2.24581 1.81119 2.30829 1.75924C2.27893 1.78258 2.24957 1.80743 2.22097 1.83226ZM2.53863 1.58083C2.53713 1.58233 2.53487 1.58309 2.53336 1.5846C2.53035 1.58685 2.52659 1.58911 2.52358 1.59137C2.50024 1.60793 2.47766 1.62449 2.45507 1.64181C2.40539 1.67945 2.35646 1.71784 2.30829 1.75924C2.38507 1.69601 2.46336 1.63578 2.5439 1.57782C2.5424 1.57857 2.54089 1.58008 2.53863 1.58083ZM2.89318 1.35123C2.87737 1.36027 2.86156 1.37006 2.84576 1.37984C2.82995 1.38887 2.81414 1.39866 2.79909 1.40844C2.84877 1.37758 2.8992 1.34822 2.95039 1.31962C2.93082 1.3294 2.912 1.34069 2.89318 1.35123ZM3.61959 1.01925C3.5955 1.02678 3.57217 1.03506 3.54883 1.04409C3.51646 1.05614 3.4841 1.06818 3.45248 1.08098C3.42086 1.09302 3.39 1.10582 3.35914 1.11937C3.29516 1.14572 3.23117 1.17508 3.16869 1.20519C3.13783 1.22024 3.10621 1.23605 3.0761 1.25186C3.07084 1.25488 3.06632 1.25713 3.06105 1.26014C3.05653 1.26165 3.05277 1.26391 3.049 1.26692C3.25376 1.16002 3.46678 1.06969 3.68659 0.997426C3.664 1.00344 3.64142 1.01172 3.61959 1.01925ZM3.94177 0.92139C3.92596 0.925154 3.91015 0.92967 3.89435 0.934186C3.91467 0.928917 3.935 0.923645 3.95532 0.918379C3.95081 0.919128 3.94629 0.919881 3.94177 0.92139ZM4.04189 0.896547C4.01328 0.903325 3.98393 0.910096 3.95532 0.918379C4.00802 0.90558 4.05995 0.892783 4.11265 0.881489C4.08931 0.886005 4.06598 0.891274 4.04189 0.896547ZM5.95539 0.895045C5.92604 0.888267 5.89593 0.881493 5.86657 0.876224C5.8598 0.874718 5.85227 0.873209 5.84474 0.871704C5.83721 0.870202 5.83044 0.868693 5.82291 0.867188C5.82818 0.868693 5.83345 0.869449 5.83872 0.870955C5.92303 0.887514 6.00734 0.907089 6.09165 0.92967C6.04648 0.917627 6.00132 0.906332 5.95539 0.895045ZM6.86623 1.221C6.85946 1.21799 6.85343 1.21498 6.84666 1.21121C6.83838 1.2067 6.82935 1.20218 6.82031 1.19917C6.8286 1.20293 6.83688 1.2067 6.84515 1.21121C6.86924 1.22251 6.89333 1.23455 6.91667 1.2466C6.9001 1.23757 6.88279 1.22928 6.86623 1.221ZM7.13798 1.36779C7.1184 1.3565 7.09959 1.34521 7.08001 1.33467C7.11238 1.35349 7.14325 1.37231 7.17486 1.39113C7.16282 1.3836 7.15077 1.37532 7.13798 1.36779ZM7.5821 1.66966C7.57684 1.66514 7.57232 1.66138 7.56705 1.65761C7.55726 1.65009 7.54747 1.64331 7.53769 1.63654C7.56027 1.65385 7.58285 1.67117 7.60544 1.68848C7.59791 1.6817 7.58963 1.67569 7.5821 1.66966ZM9.12827 4.14407C9.123 4.11546 9.11697 4.08686 9.1102 4.05901C9.0974 4.00405 9.0831 3.94835 9.06805 3.89339C9.06052 3.86554 9.05299 3.83844 9.04471 3.81134C9.03718 3.78423 9.0289 3.75714 9.01987 3.73003C9.01159 3.70218 9.00256 3.67433 8.99277 3.64723C8.98148 3.61485 8.97018 3.58248 8.95814 3.55012C8.94535 3.51248 8.93105 3.47559 8.91599 3.43946C8.90696 3.41537 8.89717 3.39204 8.88739 3.3687C8.87986 3.35138 8.87308 3.33407 8.8648 3.31751C8.8505 3.28363 8.83545 3.24976 8.81964 3.21664C8.81211 3.20083 8.80459 3.18502 8.79706 3.16996C8.75264 3.07662 8.70372 2.98478 8.65177 2.89445C8.62016 2.84024 8.58779 2.78679 8.55392 2.7341C8.53962 2.71001 8.52381 2.68668 8.508 2.66334C8.49294 2.63925 8.47638 2.61592 8.46058 2.59333C8.42971 2.54891 8.3981 2.50525 8.36573 2.46234C8.26185 2.32383 8.14893 2.19209 8.02849 2.06788C8.00516 2.04454 7.98182 2.02046 7.95849 1.99712C7.93364 1.97303 7.9088 1.9497 7.88396 1.9256C7.85686 1.90001 7.82826 1.87517 7.8004 1.85033C7.7861 1.83753 7.77255 1.82549 7.75825 1.81344C7.7703 1.82398 7.78234 1.83527 7.79438 1.84581C8.49972 2.47213 8.97847 3.32353 9.1486 4.25247C9.14257 4.21634 9.13579 4.17945 9.12827 4.14407ZM9.16063 4.32023C9.15988 4.3127 9.15837 4.30517 9.15687 4.29764C9.15461 4.28259 9.15161 4.26753 9.1486 4.25247C9.15386 4.28258 9.15913 4.31269 9.16364 4.34281C9.16289 4.33528 9.16214 4.32775 9.16063 4.32023ZM0.792236 5.24314C0.797505 5.34702 0.807294 5.45016 0.821591 5.55254C0.808043 5.4494 0.798254 5.34627 0.792236 5.24314ZM1.20474 6.83453C1.2341 6.89701 1.26572 6.95799 1.29959 7.01896C1.31164 7.04154 1.32368 7.06413 1.33648 7.08596C1.34099 7.09424 1.34551 7.10177 1.35003 7.11005C1.39519 7.18834 1.44337 7.26513 1.49381 7.34041C1.50886 7.36374 1.52467 7.38708 1.54123 7.41041C1.6707 7.59711 1.81523 7.77251 1.97256 7.93511C2.04407 8.00888 2.11784 8.07964 2.19462 8.14815C2.23828 8.18654 2.28269 8.22418 2.32786 8.26106C2.36098 8.28816 2.39485 8.31602 2.42948 8.34237C2.4355 8.34689 2.44152 8.3514 2.44754 8.35592C2.5168 8.40786 2.5868 8.45829 2.65831 8.50648C2.67261 8.51551 2.68692 8.5253 2.70122 8.53433C2.73208 8.55466 2.76445 8.57498 2.79607 8.59455C2.84801 8.62692 2.9007 8.65778 2.95415 8.68789C2.98351 8.70446 3.01362 8.72026 3.04372 8.73607C3.10997 8.7707 3.17696 8.80383 3.24546 8.83469C3.27106 8.84673 3.2974 8.85878 3.32375 8.87007C3.34784 8.88061 3.37268 8.89115 3.39752 8.90093C3.42537 8.91223 3.45247 8.92351 3.48032 8.93406C3.50818 8.94535 3.53678 8.95588 3.56463 8.96567C3.56689 8.96643 3.5699 8.96718 3.57216 8.96794C2.56046 8.59606 1.7121 7.81692 1.20474 6.83453ZM8.09473 7.86585C8.18356 7.771 8.26711 7.67163 8.3454 7.5685C8.26561 7.67163 8.18205 7.771 8.09473 7.86585ZM9.18021 4.45196C9.1787 4.44142 9.17719 4.43164 9.17569 4.4211C9.17419 4.4083 9.17193 4.39475 9.17042 4.38195C9.16967 4.37443 9.16816 4.3669 9.16666 4.35937C9.16591 4.35335 9.16515 4.34808 9.16364 4.34281C9.17418 4.41207 9.18397 4.48132 9.1915 4.55058C9.19527 4.58521 9.19828 4.62059 9.20128 4.65522C9.2043 4.6906 9.2073 4.72523 9.20957 4.75986C9.2043 4.65672 9.19451 4.55359 9.18021 4.45196Z" fill="#A53F83"/>
<path d="M1.0934 3.41797C1.08512 3.4383 1.07684 3.45937 1.06931 3.48045C1.05802 3.50831 1.04748 3.53616 1.0377 3.56401C1.03544 3.57003 1.03318 3.5753 1.03168 3.58132C1.02941 3.58734 1.02791 3.59262 1.02566 3.59864V3.59939C1.02566 3.59939 1.02566 3.59864 1.0249 3.59864V3.59789C1.04372 3.54444 1.06329 3.49174 1.08437 3.4398C1.08738 3.43227 1.09039 3.4255 1.0934 3.41797Z" fill="#F799BB"/>
<path d="M1.20849 3.1582C1.19871 3.17853 1.18967 3.1981 1.17989 3.21918C1.17838 3.2222 1.17688 3.22596 1.17537 3.22897C1.16182 3.25757 1.14903 3.28618 1.13623 3.31554C1.14827 3.28844 1.16032 3.26134 1.17236 3.23423C1.17613 3.22595 1.17989 3.21768 1.18366 3.20939C1.19194 3.19208 1.19946 3.17477 1.20849 3.1582Z" fill="#F799BB"/>
<path d="M1.2664 3.04492C1.25059 3.07503 1.23478 3.1059 1.21973 3.13676C1.21671 3.14278 1.2137 3.14805 1.21069 3.15407C1.2137 3.14805 1.21671 3.14128 1.21973 3.13525C1.23478 3.10514 1.24983 3.07427 1.2664 3.04492Z" fill="#F799BB"/>
<path d="M1.47587 2.68946C1.43823 2.74742 1.40134 2.80539 1.36672 2.86486C1.3494 2.89422 1.33209 2.92433 1.31553 2.95444C1.29897 2.98455 1.28241 3.01466 1.2666 3.04477C1.27563 3.02595 1.28618 3.00713 1.29596 2.98831C1.3223 2.94013 1.34865 2.89346 1.3765 2.84679C1.40511 2.79861 1.43446 2.75194 1.46458 2.70602C1.46759 2.69999 1.47135 2.69473 1.47587 2.68946Z" fill="#F799BB"/>
<path d="M1.51949 2.625C1.50444 2.64608 1.49013 2.66791 1.47583 2.68974C1.48336 2.67619 1.49239 2.66339 1.50143 2.65059C1.50745 2.64156 1.51347 2.63328 1.51949 2.625Z" fill="#F799BB"/>
<path d="M1.65631 2.43555C1.62469 2.47695 1.59383 2.51911 1.56372 2.56126C1.59233 2.51835 1.62394 2.4762 1.65631 2.43555Z" fill="#F799BB"/>
<path d="M1.72048 2.35352C1.6994 2.38062 1.67757 2.40772 1.65649 2.43557C1.6708 2.41525 1.68661 2.39492 1.70241 2.37535C1.70843 2.36782 1.71446 2.36029 1.72048 2.35352Z" fill="#F799BB"/>
<path d="M4.47257 0.820312C4.44322 0.82408 4.41386 0.827843 4.38525 0.83236C4.40708 0.828596 4.42892 0.825581 4.45074 0.822575C4.45828 0.821822 4.46505 0.821069 4.47257 0.820312Z" fill="#F799BB"/>
<path d="M7.60551 1.6878C7.58292 1.67048 7.56034 1.65317 7.53776 1.63586C7.48883 1.59897 7.4399 1.56359 7.38946 1.52896C7.36237 1.51014 7.33527 1.49207 7.30741 1.474C7.26375 1.4454 7.21934 1.41754 7.17493 1.39045C7.14331 1.37162 7.11245 1.35281 7.08008 1.33398C7.09965 1.34453 7.11847 1.35581 7.13804 1.36711C7.28633 1.45443 7.42936 1.55079 7.56712 1.65693C7.57238 1.66069 7.5769 1.66446 7.58217 1.66897C7.5897 1.675 7.59798 1.68102 7.60551 1.6878Z" fill="#F799BB"/>
<path d="M0.792236 5.24219C0.798254 5.34532 0.808043 5.44846 0.821591 5.55159C0.807294 5.4492 0.797505 5.34607 0.792236 5.24219Z" fill="#FFDCA7"/>
<path d="M3.91018 9.07434C3.95534 9.08639 4.00126 9.09768 4.04718 9.10897C4.00126 9.09843 3.95534 9.08714 3.90942 9.07509C3.8763 9.06606 3.84318 9.05703 3.81006 9.04649C3.77694 9.03745 3.74382 9.02691 3.71069 9.01562C3.71898 9.01864 3.72726 9.02089 3.73554 9.02315C3.76414 9.03218 3.7935 9.04122 3.82211 9.0495C3.85146 9.05853 3.88082 9.06681 3.91018 9.07434Z" fill="#FFDCA7"/>
<path d="M8.99513 6.38281C8.97481 6.43099 8.95373 6.47917 8.93115 6.52659C8.93191 6.52509 8.93265 6.52283 8.93265 6.52133C8.94395 6.49347 8.95449 6.46562 8.96427 6.43776C8.97029 6.42196 8.97556 6.40615 8.98083 6.39109C8.98083 6.39059 8.98108 6.39034 8.98159 6.39034C8.98685 6.38809 8.99062 6.38507 8.99513 6.38281Z" fill="#FFDCA7"/>
<path d="M1.02483 3.59905C1.0271 3.59379 1.02935 3.58776 1.03161 3.58249C1.03312 3.57647 1.03537 3.5712 1.03763 3.56518C1.04741 3.53732 1.05796 3.50947 1.06925 3.48162C1.07377 3.46807 1.07903 3.45452 1.08431 3.44097C1.06323 3.49291 1.04365 3.5456 1.02483 3.59905ZM1.18367 3.21061C1.1799 3.2189 1.17614 3.22718 1.17237 3.23546C1.16033 3.26255 1.14828 3.28966 1.13624 3.31676C1.14904 3.2874 1.16183 3.2588 1.17538 3.23019C1.17689 3.22718 1.1784 3.22341 1.1799 3.2204C1.18968 3.19933 1.19872 3.17975 1.2085 3.15943C1.19947 3.17599 1.19195 3.1933 1.18367 3.21061ZM0.792236 5.24314C0.797505 5.34702 0.807294 5.45015 0.821591 5.55253C0.808043 5.4494 0.798254 5.34627 0.792236 5.24314ZM1.2198 3.13534C1.21679 3.14136 1.21378 3.14814 1.21077 3.15416C1.21378 3.14814 1.21679 3.14287 1.2198 3.13684C1.23486 3.10598 1.25066 3.07511 1.26647 3.04501C1.24991 3.07436 1.23485 3.10523 1.2198 3.13534ZM1.46445 2.70625C1.43434 2.75217 1.40498 2.79884 1.37638 2.84702C1.34852 2.89369 1.32218 2.94036 1.29583 2.98855C1.28605 3.00737 1.2755 3.02618 1.26647 3.04501C1.28228 3.01489 1.29884 2.98478 1.31541 2.95467C1.33197 2.92456 1.34928 2.89445 1.36659 2.86509C1.40122 2.80562 1.4381 2.74766 1.47574 2.68969C1.47122 2.69496 1.46746 2.70023 1.46445 2.70625ZM1.50133 2.65054C1.4923 2.66334 1.48327 2.67614 1.47574 2.68969C1.49004 2.66786 1.50434 2.64602 1.5194 2.62495C1.51338 2.63323 1.50735 2.64151 1.50133 2.65054ZM1.56381 2.56171C1.59392 2.51956 1.62478 2.4774 1.6564 2.436C1.62403 2.47665 1.59242 2.5188 1.56381 2.56171ZM1.70231 2.37577C1.68651 2.39535 1.6707 2.41567 1.6564 2.436C1.67748 2.40815 1.6993 2.38104 1.72038 2.35394C1.71436 2.36072 1.70834 2.36824 1.70231 2.37577ZM3.73551 9.02288C3.72723 9.02062 3.71895 9.01837 3.71067 9.01536C3.74379 9.02665 3.77691 9.03718 3.81004 9.04622C3.7852 9.03869 3.76035 9.03116 3.73551 9.02288ZM3.91015 9.07407C3.8808 9.06654 3.85144 9.05826 3.82208 9.04923C3.81757 9.04848 3.8138 9.04697 3.81004 9.04622C3.84316 9.05676 3.87628 9.06579 3.9094 9.07482C3.95532 9.08687 4.00124 9.09816 4.04716 9.1087C4.00124 9.09741 3.95532 9.08612 3.91015 9.07407ZM5.82291 0.867188C5.82818 0.868693 5.83345 0.869449 5.83872 0.870955C5.84098 0.870955 5.84248 0.871704 5.84474 0.871704C5.83721 0.870202 5.83044 0.868693 5.82291 0.867188ZM6.82031 1.19917C6.8286 1.20293 6.83688 1.20669 6.84515 1.21121H6.84666C6.83838 1.20669 6.82935 1.20218 6.82031 1.19917ZM7.5821 1.66966C7.57684 1.66514 7.57232 1.66138 7.56705 1.65761C7.42929 1.55147 7.28627 1.45512 7.13797 1.36779C7.1184 1.3565 7.09958 1.34521 7.08001 1.33467C7.11238 1.35349 7.14324 1.37231 7.17486 1.39113C7.21927 1.41823 7.26368 1.44608 7.30735 1.47469C7.3352 1.49275 7.36229 1.51083 7.3894 1.52964C7.43983 1.56427 7.48876 1.59965 7.53769 1.63654C7.56027 1.65385 7.58286 1.67117 7.60544 1.68848C7.59791 1.6817 7.58963 1.67569 7.5821 1.66966ZM7.75825 1.81344C7.77029 1.82398 7.78234 1.83527 7.79438 1.84581C7.79664 1.84656 7.79815 1.84807 7.8004 1.85033C7.7861 1.83753 7.77255 1.82549 7.75825 1.81344ZM8.09473 7.86585C8.18356 7.771 8.26711 7.67163 8.3454 7.5685C8.26561 7.67163 8.18205 7.771 8.09473 7.86585ZM8.98148 6.39114C8.98098 6.39114 8.98072 6.39139 8.98072 6.39189C8.97546 6.40695 8.97018 6.42276 8.96417 6.43856C8.95438 6.46642 8.94384 6.49427 8.93255 6.52212C8.93255 6.52363 8.9318 6.52589 8.93104 6.52739C8.95362 6.47997 8.97471 6.43179 8.99503 6.38361C8.99051 6.38586 8.98675 6.38888 8.98148 6.39114ZM9.18021 4.45196C9.18472 4.48508 9.18849 4.51746 9.1915 4.55058C9.19527 4.5852 9.19828 4.62059 9.20128 4.65521C9.2043 4.6906 9.2073 4.72522 9.20957 4.75985C9.2043 4.65672 9.19451 4.55359 9.18021 4.45196Z" fill="#591C13"/>
<path d="M9.53857 4.40359C9.45953 3.80513 9.26682 3.23602 8.96497 2.71283C8.66236 2.18964 8.26641 1.73721 7.78691 1.36985C7.30815 1.00249 6.76918 0.736764 6.18579 0.580181C5.6024 0.423606 5.00246 0.384461 4.40402 0.463503C3.80482 0.541793 3.23573 0.735258 2.71257 1.03713C2.18941 1.33899 1.73775 1.73571 1.37041 2.21449C1.00231 2.69401 0.736585 3.23301 0.580012 3.81641C0.424192 4.39982 0.384293 4.9998 0.463335 5.59826C0.542374 6.19748 0.735832 6.76659 1.03769 7.28978C1.33954 7.81296 1.73549 8.26463 2.215 8.63199C2.69451 9.00011 3.23273 9.26584 3.81687 9.42167C4.20529 9.52631 4.60049 9.57825 4.99795 9.57825C5.19818 9.57825 5.39842 9.56545 5.59865 9.53911C6.19709 9.46006 6.76618 9.2666 7.28934 8.96473C7.81251 8.66286 8.26416 8.26689 8.63226 7.78737C8.81593 7.54723 8.97401 7.29279 9.1065 7.02555C9.23823 6.75756 9.34362 6.47677 9.4219 6.18544C9.57848 5.60203 9.61761 5.00281 9.53857 4.40359ZM9.21714 5.00507C9.21714 5.04798 9.21639 5.09089 9.21488 5.13379C9.21263 5.22112 9.2066 5.30844 9.19832 5.39577L9.18176 5.54331C9.17649 5.58923 9.16972 5.6344 9.16144 5.68032C9.15466 5.72624 9.14638 5.77141 9.13659 5.81733L9.07261 6.0921C9.06508 6.12145 9.0568 6.15081 9.04777 6.18017C9.04325 6.19673 9.03874 6.21329 9.03347 6.2291C9.02745 6.25018 9.02067 6.27126 9.0139 6.29158C9.00787 6.31191 9.0011 6.33224 8.99357 6.35256C8.98981 6.36536 8.98529 6.3774 8.98153 6.3902C8.9868 6.38794 8.99056 6.38493 8.99508 6.38267C8.97475 6.43085 8.95367 6.47903 8.93109 6.52645C8.93034 6.52796 8.92959 6.52947 8.92883 6.53097C8.92883 6.53147 8.92858 6.53197 8.92808 6.53247C8.92131 6.55054 8.91453 6.56936 8.907 6.58742C8.89421 6.61754 8.88141 6.6484 8.86861 6.67851C8.86711 6.68152 8.86636 6.68378 8.8656 6.68604C8.8528 6.7154 8.84001 6.74401 8.82646 6.77261C8.81216 6.80423 8.7971 6.8351 8.78204 6.86596C8.76699 6.89682 8.75118 6.92769 8.73537 6.9578C8.71957 6.98791 8.70301 7.01802 8.68645 7.04814C8.66988 7.07824 8.65257 7.10836 8.63526 7.13771C8.61794 7.16782 8.59988 7.19718 8.58181 7.22654C8.58106 7.22729 8.58031 7.22805 8.58031 7.22956C8.56224 7.25741 8.54417 7.28602 8.52611 7.31387C8.50729 7.34247 8.48772 7.37108 8.46815 7.39969C8.44857 7.42829 8.42825 7.45615 8.40793 7.484C8.3876 7.51185 8.36653 7.5397 8.34545 7.56756C8.26716 7.67069 8.18361 7.77005 8.09478 7.86491C8.06542 7.89652 8.03531 7.92739 8.00521 7.95825C7.85992 8.10655 7.7041 8.24281 7.5385 8.36701C7.5114 8.38734 7.48505 8.40767 7.45719 8.42649C7.42934 8.44681 7.40149 8.46638 7.37289 8.48595C7.34955 8.50176 7.32622 8.51681 7.30288 8.53263C7.26825 8.55521 7.23363 8.57704 7.19825 8.59812C7.16889 8.61618 7.13878 8.63425 7.10867 8.65157C7.01834 8.70351 6.9265 8.75244 6.83316 8.79761C6.8181 8.80514 6.8023 8.81266 6.78649 8.82019C6.7481 8.83826 6.70971 8.85557 6.67056 8.87213C6.64046 8.88493 6.60959 8.89772 6.57873 8.91052C6.5569 8.91956 6.53507 8.92784 6.51324 8.93612C6.49366 8.9444 6.47334 8.95193 6.45302 8.9587C6.42216 8.96999 6.39129 8.98129 6.36043 8.99182C6.30473 9.01064 6.24827 9.02871 6.19106 9.04527C6.16396 9.05355 6.13686 9.06108 6.10901 9.06861C6.08567 9.07539 6.06234 9.0814 6.039 9.08743C6.03523 9.08818 6.03072 9.08894 6.02695 9.09044C5.972 9.10399 5.9163 9.11679 5.86059 9.12883H5.85909C5.8079 9.13938 5.75747 9.14916 5.70628 9.15744C5.67993 9.16196 5.65434 9.16572 5.62875 9.17024C5.55724 9.18078 5.48572 9.18981 5.41345 9.19658C5.36829 9.2011 5.32237 9.20486 5.27646 9.20787C5.23204 9.21089 5.18838 9.21314 5.14397 9.21465C5.07546 9.21692 5.00697 9.21692 4.93846 9.21616H4.92341C4.85717 9.21465 4.79093 9.21239 4.72468 9.20787C4.538 9.19583 4.35207 9.17099 4.16689 9.1326C4.16237 9.1326 4.15785 9.13185 4.15334 9.13034C4.11796 9.12356 4.08258 9.11528 4.0472 9.10776C4.00129 9.09722 3.95536 9.08593 3.90945 9.07388C3.87633 9.06485 3.8432 9.05582 3.81008 9.04528C3.77696 9.03625 3.74384 9.0257 3.71072 9.01442C3.6919 9.0084 3.67383 9.00237 3.65577 8.99635C3.64598 8.99334 3.63695 8.99033 3.62716 8.98657C3.60834 8.98055 3.59103 8.97377 3.57221 8.96699C3.56995 8.96624 3.56694 8.96549 3.56468 8.96473C3.53683 8.95495 3.50822 8.9444 3.48037 8.93311C3.45252 8.92257 3.42542 8.91128 3.39757 8.89999C3.37273 8.89021 3.34789 8.87966 3.3238 8.86913C3.29745 8.85783 3.27111 8.84579 3.24551 8.83375C3.17701 8.80289 3.11002 8.76976 3.04377 8.73513C3.01367 8.71932 2.98356 8.70351 2.9542 8.68695C2.90075 8.65759 2.84806 8.62597 2.79612 8.59361C2.7645 8.57403 2.73213 8.55446 2.70127 8.53339C2.68697 8.52435 2.67266 8.51456 2.65836 8.50553C2.58685 8.45735 2.51684 8.40692 2.44759 8.35497C2.44157 8.35046 2.43555 8.34594 2.42953 8.34143C2.3949 8.31508 2.36102 8.28722 2.32791 8.26012C2.28274 8.22324 2.23758 8.18635 2.19467 8.1472C2.11789 8.0787 2.04412 8.00794 1.97261 7.93416C1.81528 7.77156 1.67075 7.59616 1.54128 7.40947C1.52472 7.38613 1.50891 7.3628 1.49386 7.33946C1.44342 7.26418 1.39524 7.1874 1.35008 7.10911C1.34556 7.10083 1.34104 7.0933 1.33653 7.08502C1.32373 7.06319 1.31169 7.0406 1.29964 7.01802C1.26577 6.95704 1.23415 6.89607 1.20479 6.83359C1.20254 6.83058 1.20103 6.82681 1.20028 6.8238C1.19727 6.81778 1.19426 6.81176 1.19125 6.80574C1.17017 6.76132 1.14984 6.71616 1.13027 6.67099C1.11672 6.64088 1.10392 6.61001 1.09188 6.57915C1.08285 6.55732 1.07457 6.53548 1.06629 6.51366C1.05801 6.49408 1.05048 6.47376 1.04371 6.45343C1.03241 6.42257 1.02112 6.3917 1.01058 6.36084C0.99854 6.32622 0.987246 6.29158 0.977462 6.25696C0.966928 6.22459 0.957139 6.19221 0.947354 6.15909C0.938322 6.12747 0.92929 6.09435 0.921007 6.06198C0.921007 6.06048 0.920258 6.05897 0.919505 6.05747C0.902942 5.99197 0.887136 5.92573 0.873584 5.85873C0.863051 5.80829 0.853262 5.75711 0.844982 5.70592C0.835946 5.65473 0.82842 5.60354 0.821642 5.5516C0.807345 5.44921 0.797556 5.34608 0.792287 5.2422C0.790782 5.20757 0.789272 5.17294 0.787771 5.13831V5.13681C0.786266 5.0939 0.785509 5.05024 0.785509 5.00733C0.785509 4.98399 0.786262 4.95991 0.786262 4.93582V4.92603C0.787767 4.85904 0.790025 4.79204 0.794541 4.72504C0.799057 4.65051 0.806588 4.57599 0.81562 4.50146C0.8239 4.43371 0.833684 4.36521 0.844978 4.29746C0.856269 4.22896 0.869817 4.1612 0.88487 4.09345C0.897666 4.03172 0.912723 3.97075 0.929286 3.90977C0.936813 3.88041 0.945092 3.85105 0.954125 3.82169C0.958641 3.80513 0.963157 3.78857 0.968426 3.77276C0.974447 3.75168 0.981225 3.73061 0.987999 3.71028C0.99402 3.68995 1.00079 3.66963 1.00833 3.6493C1.01359 3.63274 1.01962 3.61543 1.02488 3.59887V3.59812C1.0437 3.54467 1.06327 3.49197 1.08435 3.44003C1.08736 3.4325 1.09037 3.42573 1.09339 3.4182C1.09414 3.41745 1.09489 3.41594 1.09489 3.41444C1.09865 3.4054 1.10242 3.39637 1.10618 3.38734C1.11521 3.36551 1.12425 3.34443 1.13328 3.32335C1.13478 3.32034 1.13554 3.31808 1.13629 3.31582C1.14834 3.28873 1.16038 3.26162 1.17242 3.23452C1.17619 3.22624 1.17995 3.21796 1.18372 3.20968C1.192 3.19236 1.19953 3.17505 1.20856 3.15849C1.20931 3.15699 1.21006 3.15472 1.21082 3.15322C1.21383 3.1472 1.21684 3.14042 1.21985 3.1344C1.23491 3.10429 1.24996 3.07342 1.26652 3.04407C1.27555 3.02525 1.28609 3.00643 1.29588 2.98761C1.32222 2.93943 1.34857 2.89275 1.37642 2.84608C1.40503 2.7979 1.43438 2.75123 1.4645 2.70531C1.46751 2.69929 1.47127 2.69402 1.47579 2.68875C1.48332 2.6752 1.49235 2.6624 1.50138 2.6496C1.5074 2.64057 1.51342 2.63229 1.51944 2.62401C1.53375 2.60293 1.5488 2.58185 1.56386 2.56077C1.59247 2.51787 1.62408 2.47571 1.65645 2.43506C1.67075 2.41473 1.68656 2.39441 1.70236 2.37484C1.70839 2.36731 1.71441 2.35978 1.72043 2.35301C1.72871 2.34323 1.73699 2.33344 1.74452 2.32365C1.75882 2.30634 1.77312 2.28978 1.78743 2.27321C1.80926 2.24687 1.83184 2.22052 1.85517 2.19492C1.87399 2.17385 1.89206 2.15277 1.91163 2.13244C1.93045 2.11212 1.95002 2.09104 1.96959 2.07146C1.97863 2.06168 1.98766 2.05264 1.9967 2.04361L2.01326 2.02705C2.01777 2.02253 2.02154 2.01802 2.02605 2.01425C2.02756 2.01275 2.02982 2.01049 2.03132 2.00899C2.03283 2.00672 2.03509 2.00522 2.03659 2.00447C2.04713 1.99317 2.05767 1.98264 2.06821 1.97209C2.06896 1.97209 2.06896 1.97135 2.06971 1.97135C2.08777 1.95328 2.1066 1.93596 2.12466 1.9194C2.13144 1.91263 2.13746 1.9066 2.14423 1.90058C2.16983 1.87725 2.19542 1.85391 2.22101 1.83132C2.24962 1.80648 2.27898 1.78164 2.30833 1.75831C2.35651 1.7169 2.40544 1.67851 2.45512 1.64087C2.4777 1.62356 2.50029 1.60624 2.52363 1.59044C2.52664 1.58817 2.5304 1.58592 2.53341 1.58366C2.53491 1.58215 2.53717 1.5814 2.53868 1.57989C2.61697 1.52193 2.69751 1.46923 2.78107 1.4188C2.78709 1.41503 2.79311 1.41127 2.79913 1.4075C2.81419 1.39772 2.82999 1.38793 2.8458 1.37889C2.86161 1.36911 2.87742 1.35932 2.89322 1.35029C2.91204 1.33975 2.93086 1.32846 2.95043 1.31867C2.95947 1.31415 2.9685 1.30964 2.97753 1.30437C2.99183 1.29609 3.00614 1.28856 3.02119 1.28028C3.02797 1.27651 3.03549 1.2735 3.04227 1.26899C3.04453 1.26823 3.04679 1.26748 3.04905 1.26597C3.05281 1.26296 3.05657 1.26071 3.06109 1.2592C3.06636 1.25619 3.07087 1.25393 3.07615 1.25092C3.10626 1.23511 3.13787 1.2193 3.16874 1.20425C3.23121 1.17413 3.2952 1.14477 3.35918 1.11843C3.39004 1.10488 3.42091 1.09208 3.45252 1.08003C3.48414 1.06724 3.51651 1.05519 3.54888 1.04315C3.57221 1.03411 3.59555 1.02583 3.61963 1.0183C3.64146 1.01078 3.66405 1.00249 3.68663 0.996475C3.72879 0.981417 3.77169 0.967869 3.81459 0.956574C3.81761 0.955073 3.82137 0.953563 3.82438 0.953563C3.83191 0.950552 3.83868 0.949047 3.84621 0.946785C3.86051 0.942269 3.87482 0.938505 3.88987 0.934742C3.89137 0.933989 3.89288 0.933236 3.89438 0.933236C3.91019 0.92872 3.926 0.924204 3.9418 0.92044C3.94632 0.918935 3.95084 0.918178 3.95535 0.917429C3.98396 0.909146 4.01332 0.902371 4.04192 0.895597C4.06601 0.890328 4.08935 0.885055 4.11268 0.880539C4.12171 0.878285 4.1315 0.876023 4.14054 0.874521C4.14957 0.872259 4.15936 0.870754 4.16839 0.869252C4.18118 0.866237 4.19398 0.863983 4.20678 0.860972C4.25947 0.850431 4.31217 0.842151 4.36561 0.833867C4.36937 0.833114 4.37314 0.833114 4.3769 0.832366C4.37991 0.831613 4.38217 0.831613 4.38518 0.831613C4.40626 0.827849 4.42885 0.824835 4.45067 0.821828C4.4582 0.821075 4.46497 0.820322 4.4725 0.819566C4.48003 0.818817 4.48756 0.817311 4.49509 0.816555C4.51843 0.813544 4.54251 0.810533 4.56585 0.808275C4.58467 0.806013 4.60349 0.803759 4.62231 0.802253C4.65016 0.799999 4.67877 0.797737 4.70662 0.795475C4.72317 0.793974 4.73898 0.793221 4.75554 0.792464C4.79168 0.79021 4.82856 0.787948 4.86545 0.787195C4.88502 0.786443 4.90534 0.785694 4.92566 0.785694C4.95051 0.784941 4.97535 0.784941 5.00019 0.784941H5.01148C5.0988 0.784941 5.18612 0.787952 5.27268 0.793974H5.27795C5.30204 0.795475 5.32688 0.797737 5.35173 0.799995C5.3841 0.802249 5.41646 0.80526 5.44958 0.809028C5.48195 0.812791 5.51432 0.815802 5.54669 0.820318C5.58131 0.824835 5.61519 0.830104 5.64981 0.835376C5.66864 0.838387 5.68821 0.841398 5.70703 0.845162C5.70929 0.845162 5.71154 0.845914 5.7138 0.845914C5.74316 0.851183 5.77252 0.856456 5.80188 0.862474C5.80865 0.863979 5.81618 0.865489 5.82295 0.866237C5.83048 0.867743 5.83725 0.869252 5.84478 0.870754C5.85231 0.872259 5.85984 0.873768 5.86661 0.875274C5.89597 0.880539 5.92608 0.887317 5.95543 0.894095C6.00135 0.905386 6.04652 0.916677 6.09168 0.92872H6.09244C6.13534 0.940015 6.1775 0.952058 6.21965 0.965607C6.23546 0.970123 6.25127 0.974639 6.26707 0.979908C6.2731 0.981414 6.27837 0.982923 6.28364 0.985177C6.29718 0.988941 6.31073 0.993457 6.32428 0.998726C6.33934 1.00324 6.35439 1.00851 6.36945 1.01378C6.37999 1.01679 6.38978 1.02056 6.40031 1.02433C6.40859 1.02734 6.41762 1.03035 6.4259 1.03336C6.44623 1.04089 6.46731 1.04842 6.48763 1.05594C6.49893 1.0597 6.51021 1.06422 6.52075 1.06874C6.54409 1.07777 6.56818 1.0868 6.59151 1.09659C6.59603 1.0981 6.59979 1.0996 6.60431 1.10186C6.62915 1.11164 6.65399 1.12219 6.67884 1.13348H6.67958C6.68862 1.138 6.69765 1.14176 6.70669 1.14552C6.72701 1.15456 6.74658 1.16284 6.76691 1.17262C6.76916 1.17337 6.77142 1.17488 6.77293 1.17564C6.78873 1.18241 6.80454 1.18994 6.82035 1.19822C6.82938 1.20123 6.83841 1.20574 6.84669 1.21026C6.85347 1.21403 6.85949 1.21704 6.86627 1.22005C6.89713 1.23435 6.92799 1.25016 6.9581 1.26672C6.96638 1.27123 6.97541 1.27575 6.9837 1.28027C7.01682 1.29758 7.04843 1.31565 7.08005 1.33372C7.09962 1.34426 7.11844 1.35554 7.13801 1.36684C7.2863 1.45416 7.42933 1.55052 7.56709 1.65666C7.57235 1.66043 7.57687 1.66419 7.58214 1.66871C7.58967 1.67473 7.59795 1.68075 7.60548 1.68753C7.64236 1.71613 7.67925 1.74624 7.71538 1.77636C7.72968 1.7884 7.74398 1.80045 7.75828 1.81249C7.77259 1.82454 7.78614 1.83658 7.80044 1.84938C7.82829 1.87422 7.8569 1.89906 7.88399 1.92465C7.90884 1.94875 7.93368 1.97208 7.95852 1.99617C7.98186 2.01951 8.00519 2.04359 8.02853 2.06693C8.14897 2.19114 8.26188 2.32288 8.36576 2.46139C8.39813 2.5043 8.42974 2.54796 8.46061 2.59238C8.47642 2.61496 8.49298 2.6383 8.50803 2.66239C8.52384 2.68573 8.53965 2.70906 8.55395 2.73315C8.58783 2.78584 8.62019 2.83929 8.65181 2.8935C8.70375 2.98382 8.75268 3.07567 8.79709 3.16901C8.80462 3.18407 8.81215 3.19988 8.81967 3.21569C8.83548 3.24881 8.85053 3.28268 8.86484 3.31656C8.87312 3.33312 8.8799 3.35043 8.88742 3.36775C8.8972 3.39109 8.90699 3.41442 8.91602 3.43851C8.93108 3.47464 8.94538 3.51153 8.95818 3.54917C8.97022 3.58154 8.98152 3.6139 8.99281 3.64628C9.00259 3.67338 9.01163 3.70123 9.0199 3.72908C9.02893 3.75618 9.03721 3.78328 9.04474 3.81039C9.05302 3.83749 9.06055 3.86459 9.06808 3.89244C9.08313 3.9474 9.09744 4.0031 9.11024 4.05806C9.11701 4.08591 9.12303 4.11452 9.1283 4.14312C9.13583 4.1785 9.1426 4.21539 9.14863 4.25152C9.15164 4.26658 9.15464 4.28163 9.15691 4.29669C9.15841 4.30422 9.15992 4.31175 9.16067 4.31928C9.16293 4.33207 9.16518 4.34487 9.16669 4.35842C9.16819 4.36595 9.1697 4.37348 9.17045 4.381C9.17196 4.3938 9.17422 4.40735 9.17572 4.42014C9.17722 4.43069 9.17873 4.44047 9.18024 4.45101C9.19454 4.55263 9.20433 4.65576 9.2096 4.7589C9.21185 4.79428 9.21336 4.82966 9.21486 4.86429V4.8688C9.21637 4.91171 9.21712 4.95537 9.21712 4.99828L9.21714 5.00507Z" fill="#591C13"/>
<path d="M8.92794 6.5332C8.92117 6.55127 8.91439 6.57009 8.90687 6.58815C8.89407 6.61827 8.88127 6.64913 8.86848 6.67924C8.86697 6.68225 8.86622 6.68451 8.86547 6.68677C8.85267 6.71613 8.83987 6.74474 8.82632 6.77334C8.81202 6.80496 8.79696 6.83583 8.78191 6.86669C8.76686 6.89755 8.75105 6.92842 8.73524 6.95853C8.71943 6.98864 8.70287 7.01875 8.68631 7.04887C8.66975 7.07898 8.65243 7.10909 8.63512 7.13844C8.61781 7.16856 8.59974 7.19791 8.58167 7.22727C8.58092 7.22802 8.58017 7.22878 8.58017 7.23028C8.5621 7.25814 8.54404 7.28675 8.52597 7.3146C8.50715 7.3432 8.48758 7.37181 8.46801 7.40042C8.44843 7.42902 8.42812 7.45688 8.40779 7.48473C8.38746 7.51258 8.36639 7.54043 8.34531 7.56829C8.26552 7.67142 8.18196 7.77078 8.09465 7.86564C8.06529 7.89725 8.03518 7.92812 8.00507 7.95898C7.85978 8.10728 7.70397 8.24354 7.53836 8.36774C7.51126 8.38807 7.48491 8.4084 7.45706 8.42722C7.4292 8.44754 7.40135 8.46711 7.37275 8.48668C7.34941 8.50249 7.32608 8.51755 7.30274 8.53336C7.26811 8.55594 7.23349 8.57777 7.19811 8.59885C7.16875 8.61691 7.13864 8.63498 7.10853 8.6523C7.0182 8.70424 6.92636 8.75317 6.83302 8.79834C6.81797 8.80587 6.80216 8.81339 6.78635 8.82092C6.74796 8.83899 6.70957 8.8563 6.67043 8.87286C6.64032 8.88566 6.60945 8.89845 6.57859 8.91125C6.55676 8.92029 6.53493 8.92857 6.5131 8.93685C6.49353 8.94513 6.4732 8.95266 6.45288 8.95943C6.42202 8.97072 6.39115 8.98202 6.36029 8.99255C6.30459 9.01137 6.24813 9.02944 6.19092 9.046C6.16382 9.05428 6.13672 9.06181 6.10887 9.06934C6.08553 9.07612 6.0622 9.08214 6.03886 9.08816C6.03509 9.08891 6.03058 9.08967 6.02682 9.09117C5.97187 9.10472 5.91616 9.11752 5.86045 9.12956H5.85895C5.80777 9.1401 5.75733 9.14989 5.70614 9.15817C5.6798 9.16269 5.6542 9.16645 5.62861 9.17097C5.5571 9.18151 5.48559 9.19054 5.41332 9.19731C5.36815 9.20183 5.32223 9.20559 5.27632 9.20861C5.2319 9.21162 5.18824 9.21387 5.14383 9.21538C5.07532 9.21765 5.00683 9.21765 4.93833 9.21689H4.92328C4.85703 9.21538 4.79079 9.21313 4.72455 9.20861C4.53786 9.19656 4.35193 9.17172 4.16675 9.13333C6.0923 9.50295 8.10895 8.28192 8.92794 6.5332Z" fill="#A53F83"/>
<path d="M8.98067 6.39125C8.9754 6.4063 8.97013 6.42211 8.96411 6.43792C8.95432 6.46577 8.94378 6.49362 8.93249 6.52148C8.93249 6.52298 8.93174 6.52524 8.93099 6.52674C8.93023 6.52825 8.92948 6.52976 8.92873 6.53126C8.92873 6.53176 8.92847 6.53226 8.92797 6.53277C8.10898 8.28149 6.09234 9.50251 4.16678 9.13289C4.16227 9.13289 4.15775 9.13214 4.15323 9.13064C4.11786 9.12386 4.08247 9.11558 4.0471 9.10805C4.00118 9.09676 3.95526 9.08547 3.9101 9.07343C3.88074 9.0659 3.85138 9.05761 3.82202 9.04858C3.79342 9.0403 3.76406 9.03127 3.73545 9.02224C3.72718 9.01998 3.7189 9.01772 3.71061 9.01471C3.69179 9.00869 3.67373 9.00266 3.65566 8.99664C3.64588 8.99363 3.63684 8.99062 3.62706 8.98686C3.60824 8.98084 3.59092 8.97406 3.57211 8.96729C2.5604 8.59541 1.71204 7.81627 1.20469 6.83388C1.20243 6.83087 1.20092 6.82711 1.20017 6.8241C1.19716 6.81808 1.19415 6.81206 1.19114 6.80603C1.17006 6.76162 1.14974 6.71645 1.13016 6.67129C1.11661 6.64118 1.10381 6.61031 1.09177 6.57945C1.08274 6.55762 1.07446 6.53578 1.06618 6.51395C1.0579 6.49438 1.05037 6.47406 1.0436 6.45373C1.03231 6.42287 1.02102 6.392 1.01047 6.36114C0.998432 6.32651 0.987138 6.29188 0.977353 6.25726C0.966819 6.22489 0.957031 6.19251 0.947246 6.15939C0.938214 6.12777 0.929181 6.09465 0.920898 6.06228C0.920898 6.06078 0.920149 6.05927 0.919397 6.05776C0.902834 5.99227 0.887028 5.92603 0.873475 5.85903C0.862942 5.80859 0.853153 5.7574 0.844874 5.70622C0.835838 5.65503 0.828311 5.60384 0.821533 5.55189C0.807985 5.44876 0.798196 5.34562 0.792178 5.2425C0.790673 5.20787 0.789164 5.17324 0.787662 5.13861V5.13711C0.786157 5.0942 0.7854 5.05054 0.7854 5.00763C0.7854 4.98429 0.786153 4.9602 0.786153 4.93611V4.92633C0.787658 4.85933 0.789916 4.79233 0.794433 4.72533C0.798949 4.65081 0.806479 4.57628 0.815511 4.50176C0.823791 4.43401 0.833576 4.3655 0.84487 4.29775C0.85616 4.22925 0.869708 4.1615 0.884762 4.09375C1.15801 4.63124 1.53966 4.87138 2.14939 5.17249C2.61309 5.40209 3.17389 5.48791 3.679 5.41338C3.81675 5.85075 4.16753 6.21209 4.64253 6.33931C4.76146 6.37093 4.88265 6.38674 5.0031 6.38674C5.24323 6.38674 5.48034 6.32425 5.69337 6.2008C5.88683 6.08939 6.04642 5.93657 6.16385 5.7544C6.57184 6.08939 6.95199 6.30318 7.56924 6.46879C8.27909 6.65924 8.7857 6.49814 8.98067 6.39125Z" fill="#FFDCA7"/>
<path d="M3.679 5.41308C3.1739 5.4876 2.6131 5.40178 2.1494 5.17218C1.53967 4.87107 1.15802 4.63093 0.884766 4.09344C0.897561 4.03171 0.912619 3.97074 0.929181 3.90976C0.936708 3.8804 0.944988 3.85105 0.95402 3.82169C0.958536 3.80513 0.963052 3.78856 0.968321 3.77276C0.974342 3.75168 0.98112 3.7306 0.987894 3.71027C0.993916 3.68995 1.00069 3.66962 1.00822 3.6493C1.01349 3.63273 1.01951 3.61617 1.02553 3.59961C1.2205 3.98956 1.55698 4.43972 2.12079 4.69718C2.80505 5.00807 3.14981 5.06755 3.61652 4.96291C3.612 5.11799 3.63384 5.2693 3.679 5.41308Z" fill="#A53F83"/>
<path d="M9.217 4.99832V5.00509C9.217 5.048 9.21625 5.09091 9.21474 5.13382C9.21248 5.22114 9.20646 5.30847 9.19818 5.39579L9.18162 5.54334C9.1756 5.58926 9.16882 5.63518 9.16129 5.68034C9.15376 5.72626 9.14549 5.77219 9.13645 5.81735L9.07247 6.09212C9.06494 6.12148 9.05666 6.15084 9.04763 6.1802C9.04311 6.19676 9.0386 6.21332 9.03333 6.22913C9.02731 6.25021 9.02053 6.27129 9.01375 6.29161C9.00773 6.31194 9.00096 6.33226 8.99343 6.35259C8.98966 6.36539 8.98515 6.37743 8.98139 6.39023C8.98088 6.39023 8.98063 6.39048 8.98063 6.39098C8.78567 6.49787 8.27906 6.65897 7.56921 6.46852C6.95195 6.3029 6.57181 6.08911 6.16382 5.75412C6.23985 5.63744 6.29781 5.50947 6.33544 5.37095C6.65763 5.63142 7.21993 6.01233 7.83118 6.07105C8.89106 6.17418 9.12742 5.83241 9.12742 5.83015C9.12817 5.8279 9.13194 5.82865 9.13344 5.82714C9.21248 5.43268 9.23356 5.03897 9.20119 4.6543C9.2042 4.68968 9.20721 4.72431 9.20947 4.75893C9.21172 4.79432 9.21323 4.8297 9.21474 4.86433V4.86884C9.21624 4.91175 9.217 4.95541 9.217 4.99832Z" fill="#A53F83"/>
<path d="M9.20133 4.65448C9.19832 4.61986 9.19531 4.58447 9.19154 4.54985C9.18402 4.48059 9.17423 4.41133 9.16369 4.34208C9.15917 4.31197 9.15391 4.28186 9.14864 4.25174C8.97852 3.3228 8.49976 2.4714 7.79443 1.84508C7.78238 1.83454 7.77034 1.82325 7.7583 1.81271C7.74399 1.80067 7.72969 1.78862 7.71539 1.77657C7.67926 1.74646 7.64237 1.71635 7.60549 1.68775C7.5829 1.67043 7.56032 1.65312 7.53774 1.63581C7.48881 1.59892 7.43989 1.56354 7.38944 1.52891C7.36235 1.51009 7.33525 1.49202 7.30739 1.47395C7.26373 1.44535 7.21932 1.41749 7.17491 1.3904C7.14329 1.37157 7.11243 1.35276 7.08006 1.33394C7.04844 1.31587 7.01683 1.2978 6.98371 1.28049C6.97542 1.27597 6.96639 1.27145 6.95811 1.26694C6.94381 1.25941 6.93026 1.25263 6.91671 1.24586C6.89337 1.23381 6.86929 1.22177 6.8452 1.21048C6.83692 1.20596 6.82864 1.2022 6.82036 1.19843C6.80455 1.19015 6.78874 1.18262 6.77294 1.17585C6.77143 1.1751 6.76917 1.17359 6.76692 1.17284C6.74659 1.16305 6.72702 1.15477 6.7067 1.14574C6.69767 1.14198 6.68863 1.13821 6.67959 1.1337H6.67885C6.654 1.1224 6.62916 1.11186 6.60432 1.10207C6.5998 1.09982 6.59604 1.09831 6.59152 1.0968C6.56819 1.08702 6.5441 1.07798 6.52076 1.06895C6.51022 1.06443 6.49894 1.05992 6.48764 1.05615C6.46732 1.04863 6.44624 1.0411 6.42591 1.03357C6.41764 1.03056 6.4086 1.02755 6.40032 1.02454C6.38978 1.02078 6.38 1.01701 6.36946 1.014C6.3544 1.00873 6.33935 1.00346 6.3243 0.998941C6.31075 0.993672 6.2972 0.989156 6.28365 0.985392C6.27838 0.983138 6.2731 0.981629 6.26708 0.980123C6.25127 0.974854 6.23547 0.970338 6.21966 0.965822C6.17751 0.952273 6.13535 0.94023 6.09245 0.928935H6.09169C6.00739 0.906354 5.92308 0.88678 5.83877 0.87022C5.8335 0.868715 5.82823 0.867958 5.82296 0.866453C5.81618 0.865704 5.80866 0.864198 5.80188 0.862689C5.77252 0.856671 5.74317 0.851398 5.71381 0.84613C5.71155 0.84613 5.70929 0.845377 5.70703 0.845377C5.68821 0.841613 5.66864 0.838599 5.64982 0.835592C5.6152 0.830323 5.58132 0.82505 5.54669 0.820534C5.51432 0.816017 5.48196 0.813006 5.44959 0.809243C5.41647 0.805476 5.3841 0.802465 5.35173 0.80021C5.32689 0.797948 5.30205 0.79569 5.27796 0.794189H5.27269C5.18612 0.788167 5.0988 0.785156 5.01149 0.785156H5.00019C4.97536 0.785156 4.95051 0.785156 4.92567 0.785909C4.90534 0.785909 4.88502 0.786658 4.86545 0.78741C4.82857 0.788163 4.79168 0.790425 4.75555 0.792679C4.73899 0.793432 4.72318 0.794185 4.70662 0.79569C4.67877 0.797952 4.65016 0.80021 4.62231 0.802469C4.60349 0.803974 4.58468 0.806232 4.56586 0.80849C4.54252 0.810744 4.51843 0.813759 4.4951 0.81677C4.48756 0.817523 4.48004 0.819032 4.47251 0.819781C4.44315 0.823548 4.41379 0.827312 4.38519 0.831828C4.38218 0.831828 4.37992 0.831828 4.37691 0.832581C4.37315 0.83333 4.36938 0.83333 4.36562 0.834082C4.31217 0.842366 4.25948 0.850646 4.20678 0.861188C4.19399 0.864198 4.18119 0.866453 4.16839 0.869467C4.15936 0.870969 4.14957 0.872478 4.14054 0.874736C4.13151 0.876238 4.12172 0.8785 4.11269 0.880754C4.05999 0.892049 4.00805 0.904845 3.95536 0.917645C3.93504 0.92291 3.91471 0.928179 3.89438 0.933452C3.89288 0.933452 3.89137 0.934204 3.88987 0.934957C3.87482 0.93872 3.86051 0.942484 3.84621 0.947C3.83868 0.949262 3.83191 0.950768 3.82438 0.953779C3.82137 0.953779 3.81761 0.955284 3.8146 0.956789C3.77169 0.969589 3.72879 0.982385 3.68663 0.996691C3.46682 1.06895 3.2538 1.15929 3.04904 1.26618C3.04679 1.26769 3.04453 1.26845 3.04227 1.2692C3.03549 1.27371 3.02797 1.27673 3.02119 1.28049C3.00613 1.28877 2.99183 1.2963 2.97753 1.30458C2.9685 1.30985 2.95946 1.31436 2.95043 1.31888C2.89925 1.34749 2.84881 1.37685 2.79913 1.40771C2.79311 1.41148 2.78709 1.41524 2.78106 1.419C2.7374 1.4461 2.69375 1.47471 2.65159 1.50256C2.61546 1.52665 2.57933 1.5515 2.54394 1.57709C2.4634 1.63505 2.38511 1.69527 2.30833 1.75851C2.24585 1.81045 2.18488 1.86465 2.12466 1.91961C2.0953 1.94747 2.06595 1.97607 2.03659 2.00468C2.03509 2.00543 2.03282 2.00693 2.03132 2.00919C2.02982 2.01069 2.02755 2.01296 2.02605 2.01446C2.02153 2.01823 2.01777 2.02274 2.01325 2.02726L1.99669 2.04382C1.98766 2.05285 1.97863 2.06188 1.96959 2.07167C1.95002 2.09125 1.93045 2.11233 1.91163 2.13265C1.89206 2.15298 1.87399 2.17406 1.85517 2.19513C1.83184 2.22073 1.80925 2.24707 1.78742 2.27342C1.77312 2.28998 1.75882 2.30654 1.74452 2.32386C1.73699 2.33364 1.72871 2.34343 1.72043 2.35322C1.69935 2.38032 1.67752 2.40742 1.65645 2.43527C1.62483 2.47668 1.59397 2.51883 1.56386 2.56099C1.5488 2.58207 1.53375 2.60314 1.51944 2.62422C1.50438 2.6453 1.49008 2.66713 1.47578 2.68896C1.43814 2.74692 1.40126 2.80489 1.36663 2.86436C1.34932 2.89372 1.33201 2.92383 1.31545 2.95394C1.29888 2.98405 1.28233 3.01416 1.26652 3.04428C1.25071 3.07438 1.2349 3.10525 1.21985 3.13611C1.21683 3.14214 1.21382 3.14741 1.21081 3.15343C1.21006 3.15493 1.20931 3.15719 1.20855 3.1587C1.19877 3.17902 1.18973 3.1986 1.17995 3.21967C1.17844 3.22269 1.17693 3.22645 1.17543 3.22946C1.16188 3.25806 1.14909 3.28667 1.13629 3.31603C1.13554 3.31829 1.13478 3.32055 1.13328 3.32356C1.12424 3.34464 1.11521 3.36571 1.10618 3.38755C1.10242 3.39658 1.09865 3.40561 1.09489 3.41464C1.09489 3.41615 1.09414 3.41765 1.09338 3.41841C1.0851 3.43873 1.07682 3.45981 1.06929 3.48089C1.058 3.50874 1.04746 3.53659 1.03768 3.56445C1.03542 3.57047 1.03316 3.57574 1.03166 3.58176C1.02939 3.58778 1.02789 3.59305 1.02563 3.59908V3.59983C1.2206 3.98978 1.55708 4.43994 2.12089 4.69739C2.80515 5.00829 3.14992 5.06776 3.61662 4.96313C3.61888 4.85698 3.63469 4.74934 3.66329 4.64244C3.86052 3.90471 4.62231 3.46583 5.35926 3.66306C5.97727 3.82868 6.38602 4.39025 6.38602 5.00152C6.38602 5.1197 6.37096 5.24015 6.3386 5.35984C6.33784 5.36361 6.33633 5.36738 6.33558 5.37114C6.65776 5.6316 7.22007 6.01252 7.83131 6.07123C8.89119 6.17436 9.12756 5.8326 9.12756 5.83034C9.12831 5.82808 9.13207 5.82884 9.13358 5.82733C9.21262 5.43287 9.2337 5.03916 9.20133 4.65448ZM3.42091 3.33033L3.00237 3.71802C2.91957 3.7948 2.80666 3.81814 2.70504 3.79104C2.64933 3.77674 2.59739 3.74587 2.55524 3.7007C2.43705 3.57273 2.44459 3.37249 2.57255 3.2543L2.99183 2.86661C3.1198 2.74768 3.32004 2.75596 3.43822 2.88393C3.55716 3.0119 3.54888 3.21215 3.42091 3.33033ZM5.1116 2.26514L4.99869 2.82446C4.96406 2.99609 4.7977 3.106 4.62607 3.07213C4.62005 3.07062 4.61328 3.06911 4.60725 3.06686C4.44692 3.02395 4.34604 2.86436 4.37916 2.6995L4.49208 2.14018C4.5267 1.96929 4.69381 1.85864 4.86469 1.89326C5.03632 1.92789 5.14622 2.09425 5.1116 2.26514ZM6.84444 3.26559L6.29493 3.41916C6.23772 3.43497 6.18051 3.43422 6.12782 3.42067C6.02318 3.39206 5.93662 3.31151 5.905 3.20009C5.85833 3.03222 5.95619 2.85758 6.12405 2.81015L6.67357 2.65658C6.84143 2.60991 7.01607 2.70777 7.06274 2.87564C7.11017 3.04352 7.01231 3.21816 6.84444 3.26559ZM7.86669 5.04969C7.78614 5.10841 7.68753 5.12347 7.59796 5.09938C7.53096 5.08132 7.46924 5.04141 7.42482 4.98119L7.08834 4.52049C6.98521 4.37972 7.01608 4.18174 7.15684 4.0786C7.29761 3.97622 7.49483 4.00633 7.59796 4.1471L7.93519 4.60781C8.03833 4.74858 8.00745 4.94656 7.86669 5.04969Z" fill="#F799BB"/>
<path d="M3.42099 3.3311L3.00246 3.71879C2.91965 3.79557 2.80674 3.81891 2.70512 3.79181C2.64942 3.77751 2.59747 3.74664 2.55532 3.70147C2.43714 3.5735 2.44467 3.37326 2.57263 3.25507L2.99192 2.86738C3.11989 2.74845 3.32012 2.75673 3.4383 2.8847C3.55724 3.01267 3.54896 3.21292 3.42099 3.3311Z" fill="#DC68A1"/>
<path d="M6.84439 3.26518L6.29487 3.41875C6.23766 3.43456 6.18046 3.4338 6.12776 3.42025C6.02313 3.39164 5.93656 3.3111 5.90495 3.19968C5.85828 3.03181 5.95613 2.85716 6.124 2.80974L6.67351 2.65617C6.84138 2.6095 7.01602 2.70736 7.06269 2.87523C7.11011 3.0431 7.01226 3.21775 6.84439 3.26518Z" fill="#DC68A1"/>
<path d="M5.35918 3.66244C4.62224 3.46521 3.86044 3.90409 3.66322 4.64181C3.63462 4.74871 3.61881 4.85636 3.61655 4.9625C3.61203 5.11758 3.63386 5.26889 3.67903 5.41267C3.81679 5.85004 4.16757 6.21138 4.64256 6.3386C4.7615 6.37022 4.88269 6.38602 5.00313 6.38602C5.24326 6.38602 5.48038 6.32354 5.69341 6.20009C5.88687 6.08867 6.04645 5.93586 6.16388 5.75369C6.23991 5.637 6.29787 5.50903 6.33551 5.37051C6.33626 5.36675 6.33777 5.36299 6.33852 5.35922C6.37089 5.23953 6.38595 5.11908 6.38595 5.0009C6.38595 4.38963 5.9772 3.82805 5.35918 3.66244ZM5.98999 5.26588C5.84396 5.81089 5.28165 6.13534 4.7359 5.9893C4.19091 5.84327 3.86571 5.28093 4.01175 4.73591C4.13445 4.27897 4.54922 3.9771 5.00087 3.9771C5.08894 3.9771 5.17777 3.9884 5.26584 4.01173C5.81084 4.15777 6.13603 4.7201 5.98999 5.26588Z" fill="#591C13"/>
<path d="M7.86667 5.04933C7.78613 5.10805 7.68752 5.12311 7.59794 5.09901C7.53094 5.08095 7.46922 5.04105 7.42481 4.98083L7.08832 4.52012C6.98519 4.37935 7.01606 4.18137 7.15683 4.07824C7.29759 3.97585 7.49482 4.00597 7.59794 4.14674L7.93518 4.60744C8.03831 4.74821 8.00744 4.9462 7.86667 5.04933Z" fill="#68B5DC"/>
<path d="M5.11153 2.26494L4.99862 2.82426C4.96399 2.99589 4.79763 3.1058 4.626 3.07193C4.61998 3.07042 4.61321 3.06891 4.60718 3.06666C4.44684 3.02375 4.34597 2.86416 4.37909 2.6993L4.49201 2.13998C4.52663 1.96909 4.69374 1.85844 4.86462 1.89306C5.03625 1.92769 5.14615 2.09405 5.11153 2.26494Z" fill="#FFDCA7"/>
</g>
<defs>
<clipPath id="clip0_9495_280013">
<rect width="9.15442" height="9.15442" fill="white" transform="translate(0.423828 0.423828)"/>
</clipPath>
</defs>
</svg>
